<?xml version="1.0" standalone="no"?>
<!DOCTYPE svg PUBLIC "-//W3C//DTD SVG 1.1//EN" "http://www.w3.org/Graphics/SVG/1.1/DTD/svg11.dtd" >
<svg xmlns="http://www.w3.org/2000/svg">
<metadata></metadata>
<defs>
<font id="WebfontRegular" horiz-adv-x="512" >
<font-face units-per-em="512" ascent="480" descent="-32" />
<missing-glyph horiz-adv-x="500" />
<glyph unicode="&#xe000;" d="M256 320h-192v-96q0 -13 9.5 -22.5t22.5 -9.5h128q5 0 13.5 16t18.5 16t18.5 -16t13.5 -16h128q13 0 22.5 9.5t9.5 22.5v96h-192zM222 224h-124q-3 5 -4.5 10t-2.5 10.5t-1 11.5q0 17 8 32h124q4 -7 6 -15t2 -17q0 -17 -8 -32zM290 288h124q2 -4 3.5 -7.5t2.5 -7.5 t1.5 -8.5t0.5 -8.5q0 -17 -8 -32h-124q-8 15 -8 32q0 3 0.5 6.5l1 7t1.5 6.5l2 6t3 6zM456 320v-108q21 23 40 23v-43q2 0 4.5 0.5t7 6t4.5 14.5v64q-5 6 -13 12.5t-15 12t-13.5 9.5t-10.5 7zM0 277v-64q0 -6 1.5 -10t4 -6t5 -3.5t3.5 -1.5h2v43q4 0 8 -1.5t8 -3.5t7.5 -4.5 t6.5 -5t5.5 -4.5t3.5 -3l1 -1v108q-37 -21 -56 -43z" />
<glyph unicode="&#xe001;" d="M352 448l32 32l-32 32h-192l-32 -32l32 -32h192zM384 464l-32 -32v-128l32 -32l32 32v128zM160 304v128l-32 32l-32 -32v-128l32 -32zM352 208v-128l32 -32l32 32v128l-32 32zM160 80v128l-32 32l-32 -32v-128l32 -32zM128 256l32 -32h192l32 32l-32 32h-192zM160 64 l-32 -32l32 -32h192l32 32l-32 32h-192z" />
<glyph unicode="&#xe002;" d="M352 448l32 32l-32 32h-192l-32 -32l32 -32h192zM160 304v128l-32 32l-32 -32v-128l32 -32zM384 240l-32 -32v-128l32 -32l32 32v128zM160 288l-32 -32l32 -32h192l32 32l-32 32h-192zM160 64l-32 -32l32 -32h192l32 32l-32 32h-192z" />
<glyph unicode="&#xe003;" d="M384 464l-32 -32v-128l32 -32l32 32v128zM160 304v128l-32 32l-32 -32v-128l32 -32zM352 208v-128l32 -32l32 32v128l-32 32zM384 256l-32 32h-192l-32 -32l32 -32h192z" />
<glyph unicode="&#xe004;" d="M352 448l32 32l-32 32h-192l-32 -32l32 -32h192zM384 464l-32 -32v-128l32 -32l32 32v128zM160 304v128l-32 32l-32 -32v-128l32 -32zM352 208v-128l32 -32l32 32v128l-32 32zM128 256l32 -32h192l32 32l-32 32h-192zM160 64l-32 -32l32 -32h192l32 32l-32 32h-192z" />
<glyph unicode="&#xe005;" d="M384 464l-32 -32v-128l32 -32l32 32v128zM352 208v-128l32 -32l32 32v128l-32 32z" />
<glyph unicode="&#xe006;" d="M384 480l-32 32h-192l-32 -32l32 -32h192zM384 464l-32 -32v-128l32 -32l32 32v128zM352 208v-128l32 -32l32 32v128l-32 32z" />
<glyph unicode="&#xe007;" d="M352 448l32 32l-32 32h-192l-32 -32l32 -32h192zM160 304v128l-32 32l-32 -32v-128l32 -32zM384 240l-32 -32v-128l32 -32l32 32v128zM160 80v128l-32 32l-32 -32v-128l32 -32zM160 288l-32 -32l32 -32h192l32 32l-32 32h-192zM160 64l-32 -32l32 -32h192l32 32l-32 32 h-192z" />
<glyph unicode="&#xe008;" d="M352 448l32 32l-32 32h-192l-32 -32l32 -32h192zM384 464l-32 -32v-128l32 -32l32 32v128zM352 208v-128l32 -32l32 32v128l-32 32zM352 224l32 32l-32 32h-192l-32 -32l32 -32h192zM160 64l-32 -32l32 -32h192l32 32l-32 32h-192z" />
<glyph unicode="&#xe009;" d="M352 448l32 32l-32 32h-192l-32 -32l32 -32h192zM384 464l-32 -32v-128l32 -32l32 32v128zM160 80v128l-32 32l-32 -32v-128l32 -32zM160 288l-32 -32l32 -32h192l32 32l-32 32h-192zM160 64l-32 -32l32 -32h192l32 32l-32 32h-192z" />
<glyph unicode="&#xe00a;" d="M352 448l32 32l-32 32h-192l-32 -32l32 -32h192zM384 464l-32 -32v-128l32 -32l32 32v128zM160 304v128l-32 32l-32 -32v-128l32 -32zM352 208v-128l32 -32l32 32v128l-32 32zM160 80v128l-32 32l-32 -32v-128l32 -32zM160 64l-32 -32l32 -32h192l32 32l-32 32h-192z" />
<glyph unicode="&#xe00b;" d="M480 416v32l-224 -64l-224 64v-32l160 -64v-128l-64 -224h32l96 224l96 -224h32l-64 224v128zM208 464q0 20 14 34t34 14t34 -14t14 -34t-14 -34t-34 -14t-34 14t-14 34z" />
<glyph unicode="&#xe00c;" d="M160 48q-46 0 -79 33t-33 79q0 32 17 59t45 41l-22 43q-40 -20 -64 -58.5t-24 -84.5q0 -66 47 -113t113 -47t113 47t47 113h-48q0 -46 -33 -79t-79 -33zM480 160l-32 -32l-109 109h-115v51h128v32h-128v64h-64v-192h160l128 -128l64 64zM144 464q0 20 14 34t34 14t34 -14 t14 -34t-14 -34t-34 -14t-34 14t-14 34z" />
<glyph unicode="&#xe00d;" d="M480 384q13 0 22.5 9.5t9.5 22.5v64h-64v32h-416q-13 0 -22.5 -9.5t-9.5 -22.5v-448q0 -13 9.5 -22.5t22.5 -9.5h416v128h32q13 0 22.5 9.5t9.5 22.5v64h-64v32h32q13 0 22.5 9.5t9.5 22.5v64h-64v32h32zM288 365q19 0 32 -13t13 -32t-13 -32t-32 -13q-9 0 -17.5 3.5 t-14.5 9.5t-9.5 14.5t-3.5 17.5q0 12 6 22.5t16.5 16.5t22.5 6zM128 32h-32v448h32v-448zM209 160q0 27 6 46.5t13.5 29t20.5 14.5t20.5 5.5t19.5 0.5q9 0 15 -0.5t17 -3t18 -8.5t14.5 -16t11 -27.5t3.5 -40.5h-159z" />
<glyph unicode="&#xe00e;" d="M448 384h-96v64q0 13 -9.5 22.5t-22.5 9.5h-128q-13 0 -22.5 -9.5t-9.5 -22.5v-64h-96q-26 0 -45 -19t-19 -45v-256q0 -26 19 -45t45 -19h384q26 0 45 19t19 45v256q0 26 -19 45t-45 19zM192 448h128v-64h-128v64zM384 160h-96v-96h-64v96h-96v64h96v96h64v-96h96v-64z " />
<glyph unicode="&#xe00f;" d="M384 192l-91 91l219 165l-64 64l-274 -110l-87 87q-18 18 -41 22t-36 -9t-9 -36t22 -41l87 -87l-110 -274l64 -64l165 219l91 -91v-128h64l32 96l96 32v64h-128z" />
<glyph unicode="&#xe010;" d="M512 96q-40 0 -68 28t-28 68v143q0 25 -10 49.5t-27 43t-40.5 31.5t-50.5 18v35h-64v-35q-55 -10 -91.5 -50t-36.5 -92v-143q0 -40 -28 -68t-68 -28v-32h215q-4 -9 -4 -19q0 -18 13 -31.5t32 -13.5t32 13.5t13 31.5q0 10 -4 19h215v32zM224 160l-96 96l32 32l64 -64 l128 128l32 -32z" />
<glyph unicode="&#xe011;" d="M512 96q-40 0 -68 28t-28 68v143q0 52 -36.5 92t-91.5 50v35h-64v-35q-55 -10 -91.5 -50t-36.5 -92v-143q0 -40 -28 -68t-68 -28v-32h215q-1 -2 -2 -4.5t-1.5 -4.5t-0.5 -4.5v-5.5q0 -18 13 -31.5t32 -13.5q12 0 22.5 6t16.5 16.5t6 22.5q0 5 -1 10t-3 9h215v32zM352 192 l-32 -32l-64 64l-64 -64l-32 32l64 64l-64 64l32 32l64 -64l64 64l32 -32l-64 -64z" />
<glyph unicode="&#xe012;" d="M204 475q-29 37 -76 37q-40 0 -68 -28t-28 -68q0 -26 13 -48q58 86 159 107zM256 448q-93 0 -158.5 -65.5t-65.5 -158.5t65.5 -158.5t158.5 -65.5t158.5 65.5t65.5 158.5t-65.5 158.5t-158.5 65.5zM256 32q-80 0 -136 56t-56 136t56 136t136 56t136 -56t56 -136t-56 -136 t-136 -56zM467 368q7 11 10 23t3 25q0 40 -28 68t-68 28q-47 0 -76 -37q49 -10 90.5 -38t68.5 -69zM256 352h-32v-160h128v32h-96v128z" />
<glyph unicode="&#xe013;" d="M256 416q-80 0 -136 -56t-56 -136t56 -136t136 -56t136 56t56 136t-56 136t-136 56zM358 122q-42 -42 -102 -42t-102 42t-42 102q0 29 11 55t31 47q42 42 102 42t102 -42t42 -102t-42 -102zM163 410l-22 43q-76 -38 -114 -114l43 -22q15 30 39 54t54 39zM442 317l43 22 q-9 18 -21.5 35t-26.5 31t-31 26.5t-35 21.5l-22 -43q62 -31 93 -93zM256 320h-32v-96q0 -8 6 -12l80 -64l20 24l-74 60v88z" />
<glyph unicode="&#xe014;" d="M455 159q-47 -19 -96.5 -29t-97.5 -10q-137 0 -253 67q-3 2 -5.5 1t-2.5 -3.5t2 -5.5q107 -96 254 -96q54 0 110 16.5t97 46.5q7 5 3 10.5t-11 2.5zM510 191q-1 2 -6.5 3.5t-12.5 2.5t-16.5 1t-19 -1.5t-19 -5t-17.5 -8.5q-3 -3 -2.5 -6t4.5 -2q6 1 10.5 1.5t12.5 1 t13.5 0.5h12t10.5 -1.5t6 -3.5t2 -6.5t-1 -11t-2.5 -12t-4.5 -13t-4.5 -11.5t-4.5 -10q-1 -4 1.5 -5t5.5 2q21 16 29.5 47t2.5 38zM270 338q-62 -8 -80 -15q-13 -6 -23 -15.5t-16 -23t-6 -30.5q0 -32 18 -49t46 -17q15 0 26 3t21 9.5t22 18.5q13 -19 24 -28q6 -3 10 1 q7 6 17 14.5t16 13.5q5 4 0 11q-1 1 -3.5 4.5t-3.5 4.5t-3 4.5t-2.5 5.5t-1.5 5.5t-1.5 7t-0.5 7.5v66v8.5v9.5t-0.5 8.5t-1 9t-1 8t-2 8t-3.5 7t-4.5 7.5t-6.5 6q-22 21 -63 21q-35 0 -61.5 -15t-32.5 -49q-2 -7 6 -9l41 -5q6 1 7 8q5 26 34 26q16 0 24 -11l2 -4t1.5 -4.5 t0.5 -4t0.5 -5t0.5 -4.5v-4.5v-4.5v-5zM262 250q-11 -19 -29 -19q-12 0 -19 8t-7 22q0 43 63 43v-9v-3q0 -10 -0.5 -15t-2 -13t-5.5 -14z" />
<glyph unicode="&#xe015;" d="M292 306q-19 0 -32 -3q-31 -9 -31 -39q0 -14 7 -22.5t19 -8.5q1 0 3 0.5l2 0.5q16 4 24 19q8 14 8 45v8zM427 512h-342q-17 0 -33 -7t-27 -18t-18 -27t-7 -33v-342q0 -35 25 -60t60 -25h342q35 0 60 25t25 60v342q0 35 -25 60t-60 25zM287 376q-8 11 -24 11h-3 q-7 -1 -13.5 -3.5t-11 -8.5t-6.5 -13q-1 -7 -7 -8l-41 5q-7 2 -6 8q12 60 85 64h9q17 0 34.5 -5t29.5 -16q3 -3 6 -7.5l5 -7.5t3.5 -9t2 -8.5t1 -9.5t0.5 -9v-11v-10v-65q0 -18 16 -39q4 -7 -1 -11q-13 -11 -32 -27q-4 -4 -10 -1q-4 3 -6.5 5.5l-4.5 4.5t-3.5 4l-3 4 t-3.5 4.5t-3 5.5q-20 -21 -40 -27q-14 -4 -29 -4q-28 0 -45.5 17t-17.5 48q0 50 45 68q16 8 47 12q10 1 32 3v6v3q0 19 -5 27zM414 124q-7 -5 -16 -10q-64 -38 -142 -38q-112 0 -194 74q-3 2 -1 5t6 1q88 -52 193 -52q71 0 138 26q1 1 4.5 2.5t5.5 1.5q5 3 8 -1.5t-2 -8.5z M452 150q-1 -8 -3.5 -18t-8.5 -21t-14 -18q-5 -2 -6 3q17 42 12 49q-5 6 -34 3q-2 0 -8 -0.5t-8 -1.5q-3 0 -3.5 2t2.5 4q8 5 17 8q17 5 33 4t19 -5q2 -3 2 -7v-2z" />
<glyph unicode="&#xe016;" d="M448 224v-66q-76 -78 -160 -91v189h96v32l-96 37q28 10 46 35t18 56q0 40 -28 68t-68 28t-68 -28t-28 -68q0 -21 8 -39t22.5 -31.5t33.5 -20.5l-96 -37v-32h96v-189q-84 13 -160 91v66h-64v-32q0 -53 83 -122.5t173 -69.5t173 69.5t83 122.5v32h-64zM206 416 q0 21 14.5 35.5t35.5 14.5q14 0 25 -7t18 -18t7 -25t-7 -25t-18 -18t-25 -7q-21 0 -35.5 14.5t-14.5 35.5z" />
<glyph unicode="&#xe017;" d="M432 352q-13 0 -22.5 -9.5t-9.5 -22.5v-128q0 -13 9.5 -22.5t22.5 -9.5t22.5 9.5t9.5 22.5v128q0 13 -9.5 22.5t-22.5 9.5zM48 352q-13 0 -22.5 -9.5t-9.5 -22.5v-128q0 -13 9.5 -22.5t22.5 -9.5t22.5 9.5t9.5 22.5v128q0 13 -9.5 22.5t-22.5 9.5zM96 144q0 -20 14 -34 t34 -14h16v-64q0 -13 9.5 -22.5t22.5 -9.5t22.5 9.5t9.5 22.5v64h32v-64q0 -13 9.5 -22.5t22.5 -9.5t22.5 9.5t9.5 22.5v64h16q20 0 34 14t14 34v176h-288v-176zM299 467l21 39q1 4 -2.5 5.5t-5.5 -1.5l-20 -40q-25 10 -52 10q-14 0 -27 -2.5t-25 -7.5l-20 40q-3 2 -6 2 q-3 -2 -2 -6l21 -39q-23 -10 -41 -27t-29 -40t-14 -48h286q-4 38 -26.5 69t-57.5 46zM176 377q-6 0 -11.5 3t-8.5 8.5t-3 11.5q0 10 6.5 16.5t16.5 6.5q6 0 11.5 -3t8.5 -8.5t3 -11.5q0 -10 -6.5 -16.5t-16.5 -6.5zM304 377q-10 0 -16.5 6.5t-6.5 16.5t6.5 16.5t16.5 6.5 t16.5 -6.5t6.5 -16.5t-6.5 -16.5t-16.5 -6.5z" />
<glyph unicode="&#xe018;" d="M512 297q0 50 -9 92t-24 66.5t-33 24.5h1h-42q-2 -2 -5.5 -4.5t-16 -10.5t-26 -16t-35 -18.5t-43.5 -19.5t-50.5 -18t-56.5 -15q-3 -12 -4.5 -24t-2 -26.5t-0.5 -30.5q0 -43 7 -80q62 -13 120.5 -38.5t85.5 -44.5l27 -19h42h-1q28 0 47 53.5t19 128.5zM446 132 q-6 0 -13 8q-3 4 -6 9t-6 11.5t-6 13.5q-18 51 -18 123.5t18 123.5q8 22 18 33q2 2 3.5 4t4.5 3.5t5 1.5q3 0 6.5 -2.5t5.5 -6.5q10 -11 18 -33q6 -17 10 -36.5t6.5 -41.5t2.5 -46q0 -72 -19 -123q-8 -22 -18 -34q-1 -2 -3 -3.5t-4.5 -3t-4.5 -1.5zM130 297q0 39 5 75 l-18 -2l-18 -2t-18.5 -1h-19.5h-33l-28 -48v-44l28 -47h33q19 0 37.5 -1.5t36.5 -3.5q-5 35 -5 74zM423 377q-7 -37 -7 -79.5t7 -80.5q18 1 30.5 24.5t12.5 56t-12.5 56t-30.5 23.5zM184 191l-64 12l41 -161q2 -6 7 -8.5t11 -0.5l60 24q6 2 8 8t-1 11z" />
<glyph unicode="&#xe019;" d="M64 320h-64v-160h64v32l64 -18v-1v-45q0 -13 9.5 -22.5t22.5 -9.5h64q13 0 22.5 9.5t9.5 22.5v9l160 -46v298l-352 -101v32zM160 165l64 -19v-18h-64v37zM448 398v-316l64 -18v352z" />
<glyph unicode="&#xe01a;" d="M396 240q0 18 5.5 35t12 26.5t17 19.5t13 11.5l7.5 4.5q-33 49 -94 51q-17 2 -37 -4t-36.5 -12.5t-24.5 -6.5t-37 11t-47 11q-13 0 -25.5 -3t-24 -8.5t-22 -13.5t-19 -18t-15.5 -21q-21 -37 -21 -87t15 -93.5t38 -77.5q14 -20 24 -32t26 -23t31 -10q9 0 17.5 2.5 t15.5 5.5l14 6t16.5 5t20.5 2q20 0 44 -10.5t41 -9.5q12 0 23 5t21.5 15.5t17 19t16.5 23.5q22 31 35 72q-4 2 -8.5 4.5t-16 11.5t-20.5 19.5t-16 29t-7 39.5zM331 430q32 38 27 82q-19 -1 -40.5 -12t-34.5 -27q-9 -10 -15.5 -22.5t-10.5 -27.5t-2 -29q11 -1 22 1.5 t20.5 7.5t18 12t15.5 15z" />
<glyph unicode="&#xe01b;" d="M384 0l-128 128l256 256l-128 128l-256 -256l-128 128v-384h384z" />
<glyph unicode="&#xe01c;" d="M0 0h288l-96 96l320 416l-416 -320l-96 93v-285z" />
<glyph unicode="&#xe01d;" d="M32 32h320l96 96h-224l256 256l-96 96l-256 -256v224l-96 -96v-320z" />
<glyph unicode="&#xe01e;" d="M512 384l-128 -128l-256 256l-128 -128l256 -256l-128 -128h384v384z" />
<glyph unicode="&#xe01f;" d="M512 0v288l-96 -96l-416 320l320 -416l-93 -96h285z" />
<glyph unicode="&#xe020;" d="M480 32v320l-96 96v-224l-256 256l-96 -96l256 -256h-224l96 -96h320z" />
<glyph unicode="&#xe021;" d="M256 0l256 256h-160v256h-192v-256h-160z" />
<glyph unicode="&#xe022;" d="M512 320l-96 96l-160 -160l-160 160l-96 -96l256 -256z" />
<glyph unicode="&#xe023;" d="M256 512l56 -384h104l-160 -128l-160 128h104z" />
<glyph unicode="&#xe024;" d="M256 0l224 512l-224 -96l-224 96z" />
<glyph unicode="&#xe025;" d="M384 224v64l-96 -96v192h-64v-192l-96 96v-64l128 -128zM512 256q0 106 -75 181t-181 75t-181 -75t-75 -181t75 -181t181 -75t181 75t75 181zM32 256q0 93 65.5 158.5t158.5 65.5t158.5 -65.5t65.5 -158.5t-65.5 -158.5t-158.5 -65.5t-158.5 65.5t-65.5 158.5z" />
<glyph unicode="&#xe026;" d="M0 384l256 -256l256 256l-256 -128z" />
<glyph unicode="&#xe027;" d="M0 224l256 -224l256 224h-186l58 288h-256l58 -288h-186zM166 480h180l-58 -288h139l-171 -149l-171 149h139z" />
<glyph unicode="&#xe028;" d="M480 224v128l-160 -160v320h-128v-320l-160 160v-128l224 -224z" />
<glyph unicode="&#xe029;" d="M416 416l-96 96l-256 -256l256 -256l96 96l-160 160zM0 512v-512h64v256v256h-64z" />
<glyph unicode="&#xe02a;" d="M96 96l96 -96l256 256l-256 256l-96 -96l160 -160zM512 0v512h-64v-256v-256h64z" />
<glyph unicode="&#xe02b;" d="M0 256l256 -256v160h256v192h-256v160z" />
<glyph unicode="&#xe02c;" d="M320 0l96 96l-160 160l160 160l-96 96l-256 -256z" />
<glyph unicode="&#xe02d;" d="M512 256l-384 -56v-104l-128 160l128 160v-104z" />
<glyph unicode="&#xe02e;" d="M0 256l512 -224l-96 224l96 224z" />
<glyph unicode="&#xe02f;" d="M224 128h64l-96 96h192v64h-192l96 96h-64l-128 -128zM256 0q106 0 181 75t75 181t-75 181t-181 75t-181 -75t-75 -181t75 -181t181 -75zM256 480q93 0 158.5 -65.5t65.5 -158.5t-65.5 -158.5t-158.5 -65.5t-158.5 65.5t-65.5 158.5t65.5 158.5t158.5 65.5z" />
<glyph unicode="&#xe030;" d="M384 512l-256 -256l256 -256l-128 256z" />
<glyph unicode="&#xe031;" d="M224 512l-224 -256l224 -256v186l288 -58v256l-288 -58v186zM480 346v-180l-288 58v-139l-149 171l149 171v-139z" />
<glyph unicode="&#xe032;" d="M224 32h128l-160 160h320v128h-320l160 160h-128l-224 -224z" />
<glyph unicode="&#xe033;" d="M512 256l-256 256v-160h-256v-192h256v-160z" />
<glyph unicode="&#xe034;" d="M192 512l-96 -96l160 -160l-160 -160l96 -96l256 256z" />
<glyph unicode="&#xe035;" d="M0 256l384 56v104l128 -160l-128 -160v104z" />
<glyph unicode="&#xe036;" d="M512 256l-512 224l96 -224l-96 -224z" />
<glyph unicode="&#xe037;" d="M288 384h-64l96 -96h-192v-64h192l-96 -96h64l128 128zM256 512q-106 0 -181 -75t-75 -181t75 -181t181 -75t181 75t75 181t-75 181t-181 75zM256 32q-93 0 -158.5 65.5t-65.5 158.5t65.5 158.5t158.5 65.5t158.5 -65.5t65.5 -158.5t-65.5 -158.5t-158.5 -65.5z" />
<glyph unicode="&#xe038;" d="M128 0l256 256l-256 256l128 -256z" />
<glyph unicode="&#xe039;" d="M288 0l224 256l-224 256v-186l-288 58v-256l288 58v-186zM32 166v180l288 -58v139l149 -171l-149 -171v139z" />
<glyph unicode="&#xe03a;" d="M288 480h-128l160 -160h-320v-128h320l-160 -160h128l224 224z" />
<glyph unicode="&#xe03b;" d="M0 128l128 128l256 -256l128 128l-256 256l128 128h-384v-384z" />
<glyph unicode="&#xe03c;" d="M0 512v-288l96 96l416 -320l-320 416l93 96h-285z" />
<glyph unicode="&#xe03d;" d="M32 480v-320l96 -96v224l256 -256l96 96l-256 256h224l-96 96h-320z" />
<glyph unicode="&#xe03e;" d="M128 512l128 -128l-256 -256l128 -128l256 256l128 -128v384h-384z" />
<glyph unicode="&#xe03f;" d="M512 512h-288l96 -96l-320 -416l416 320l96 -93v285z" />
<glyph unicode="&#xe040;" d="M480 480h-320l-96 -96h224l-256 -256l96 -96l256 256v-224l96 96v320z" />
<glyph unicode="&#xe041;" d="M256 512l-256 -256h160v-256h192v256h160z" />
<glyph unicode="&#xe042;" d="M0 192l96 -96l160 160l160 -160l96 96l-256 256z" />
<glyph unicode="&#xe043;" d="M256 0l-56 384h-104l160 128l160 -128h-104z" />
<glyph unicode="&#xe044;" d="M256 512l-224 -512l224 96l224 -96z" />
<glyph unicode="&#xe045;" d="M128 288v-64l96 96v-192h64v192l96 -96v64l-128 128zM0 256q0 -106 75 -181t181 -75t181 75t75 181t-75 181t-181 75t-181 -75t-75 -181zM480 256q0 -61 -30 -112.5t-81.5 -81.5t-112.5 -30q-93 0 -158.5 65.5t-65.5 158.5t65.5 158.5t158.5 65.5q61 0 112.5 -30 t81.5 -81.5t30 -112.5z" />
<glyph unicode="&#xe046;" d="M512 128l-256 256l-256 -256l256 128z" />
<glyph unicode="&#xe047;" d="M512 288l-256 224l-256 -224h186l-58 -288h256l-58 288h186zM346 32h-180l58 288h-139l171 149l171 -149h-139z" />
<glyph unicode="&#xe048;" d="M32 288v-128l160 160v-320h128v320l160 -160v128l-224 224z" />
<glyph unicode="&#xe049;" d="M349 348l-33 33l-162 -162q-20 -21 -20 -49.5t20 -48.5t48.5 -20t48.5 20l195 195q17 17 25.5 38t8.5 43t-8.5 43.5t-25.5 37.5q-22 22 -51.5 30t-59 0t-51.5 -30l-205 -204v0v-1q-47 -47 -47 -113t47 -113t113 -47t113 47h1v0l140 140l-33 32l-140 -139v-0.5v-0.5 q-33 -33 -80.5 -33t-81 33.5t-33.5 80.5t33 81h1v0l204 205q21 20 49.5 20t48.5 -20t20 -48.5t-20 -49.5l-195 -194q-7 -7 -16.5 -7t-16 6.5t-6.5 16t7 16.5z" />
<glyph unicode="&#xe04a;" d="M416 384h-288q-53 0 -90.5 -37.5t-37.5 -90.5t37.5 -90.5t90.5 -37.5h288v32h-288q-40 0 -68 28t-28 68t28 68t68 28h288q27 0 45.5 -18.5t18.5 -45.5t-18.5 -45.5t-45.5 -18.5h-224q-13 0 -22.5 9.5t-9.5 22.5t9.5 22.5t22.5 9.5h224v32h-224q-27 0 -45.5 -18.5 t-18.5 -45.5t18.5 -45.5t45.5 -18.5h224q40 0 68 28t28 68t-28 68t-68 28z" />
<glyph unicode="&#xe04b;" d="M160 416l-160 -160l160 -160h352v320h-352zM469 178l-39 -39l-78 78l-78 -78l-39 39l78 78l-78 78l39 39l78 -78l78 78l39 -39l-78 -78z" />
<glyph unicode="&#xe04c;" d="M160 416l-160 -160l160 -160h352v320h-352zM480 128h-307l-128 128l128 128h307v-256zM288 160l64 64l64 -64l32 32l-64 64l64 64l-32 32l-64 -64l-64 64l-32 -32l64 -64l-64 -64z" />
<glyph unicode="&#xe04d;" d="M432 352h-80q0 66 -28 113t-68 47t-68 -47t-28 -113h-80q-7 0 -11.5 -4.5t-4.5 -11.5v-320q0 -7 4.5 -11.5t11.5 -4.5h352q7 0 11.5 4.5t4.5 11.5v320q0 7 -4.5 11.5t-11.5 4.5zM256 480q27 0 45.5 -37.5t18.5 -90.5h-128q0 53 18.5 90.5t45.5 37.5z" />
<glyph unicode="&#xe04e;" d="M28 288l52 83l52 -83h28l-80 128l-80 -128h28zM128 192l32 32v32h-160v-32l32 -32h96zM348 288l52 83l52 -83h28l-80 128l-80 -128h28zM320 224l32 -32h96l32 32v32h-160v-32zM256 96v291q10 3 18 11t11 18h115h16v32h-131q-5 14 -17.5 23t-27.5 9q-10 0 -19.5 -4 t-16 -11.5t-9.5 -16.5h-131v-32h16h115q1 -3 2.5 -6.5t4 -6l5 -5l5 -5t6 -4t6.5 -2.5v-291h-160l-32 -64h416l-32 64h-160zM217 432q0 10 6.5 16.5t16.5 6.5q6 0 11.5 -3t8.5 -8.5t3 -11.5q0 -10 -6.5 -16.5t-16.5 -6.5q-6 0 -11.5 3t-8.5 8.5t-3 11.5z" />
<glyph unicode="&#xe04f;" d="M448 288q0 93 -56 158.5t-136 65.5t-136 -65.5t-56 -158.5q0 -83 46 -145.5t115 -75.5l-17 -67h96l-17 67q69 13 115 75.5t46 145.5zM141 256h-48q-2 16 -2 32q0 33 10 64h48q-10 -31 -10 -64q0 -16 2 -32z" />
<glyph unicode="&#xe050;" d="M0 96h512v-64h-512v64zM64 224h64v-96h-64v96zM160 352h64v-224h-64v224zM256 256h64v-128h-64v128zM352 448h64v-320h-64v320z" />
<glyph unicode="&#xe051;" d="M406 320l-88 116q2 6 2 12q0 13 -9.5 22.5t-22.5 9.5t-22.5 -9.5t-9.5 -22.5t9.5 -22.5t22.5 -9.5h4l74 -96h-220l74 96h2h2q13 0 22.5 9.5t9.5 22.5t-9.5 22.5t-22.5 9.5t-22.5 -9.5t-9.5 -22.5q0 -2 0.5 -4l1 -4t0.5 -4l-88 -116h-106v-64h32l32 -256h384l32 256h32v64 h-106zM160 64h-64v64h64v-64zM160 192h-64v64h64v-64zM288 64h-64v64h64v-64zM288 192h-64v64h64v-64zM416 64h-64v64h64v-64zM416 192h-64v64h64v-64z" />
<glyph unicode="&#xe052;" d="M0 64h64v-64h64v64h256v-64h64v64h64v32h-512v-32zM416 352h-160h-160l-96 -224h512zM176 384q33 0 56.5 -9.5t23.5 -22.5q0 13 23.5 22.5t56.5 9.5t56.5 -9.5t23.5 -22.5v128q0 13 -9.5 22.5t-22.5 9.5h-256q-13 0 -22.5 -9.5t-9.5 -22.5v-128q0 13 23.5 22.5t56.5 9.5z " />
<glyph unicode="&#xe053;" d="M501 94q-38 29 -62 74.5t-34 88.5t-21 83t-34 69t-62 36v3q0 13 -9.5 22.5t-22.5 9.5t-22.5 -9.5t-9.5 -22.5v-3q-39 -7 -62 -36t-34 -69t-21 -83t-34 -88.5t-62 -74.5q-11 -7 -11 -14q0 -17 60 -30.5t150 -16.5q5 -15 17.5 -24t28.5 -9t28.5 9t17.5 24q90 3 150 16.5 t60 30.5q-1 8 -11 14zM240 448q0 7 4.5 11.5t11.5 4.5t11.5 -4.5t4.5 -11.5v-1q-8 1 -16 1l-16 -1v1zM475 72q-20 -7 -53 -12q-51 -9 -118 -11q0 19 -14 33t-34 14t-34 -14t-14 -33q-67 2 -118 11q-33 5 -53 12q-11 4 -17 8q6 4 17 8q20 7 53 12q71 12 166 12t166 -12 q33 -5 53 -12q6 -2 10 -4t7 -4l-4 -2t-5.5 -2.5t-7.5 -3.5zM511 87zM1 87z" />
<glyph unicode="&#xe054;" d="M512 96q-40 0 -68 28t-28 68v143q0 52 -36.5 92t-91.5 50v35h-64v-35q-22 -4 -41.5 -13t-35 -22.5t-27 -30t-18 -36.5t-6.5 -40v-143q0 -40 -28 -68t-68 -28v-32h215q-4 -9 -4 -19q0 -18 13 -31.5t32 -13.5t32 13.5t13 31.5q0 5 -1 10t-3 9h215v32z" />
<glyph unicode="&#xe055;" d="M416 280q-14 0 -28 -4l-29 71v1l21 36h36v16h-80v-16h25l-18 -32h-191l14 48h58q8 0 8 8t-8 8h-70l-39 -138q-5 1 -9.5 1.5t-9.5 0.5q-40 0 -68 -28t-28 -68q0 -26 13 -48t35 -35t48 -13q40 0 68 28t28 68q0 30 -17 54.5t-45 35.5l15 52l104 -147h1v0q0 -1 0.5 -1h0.5v-1 h1v0l0.5 -0.5t1.5 -0.5h1v0h1v0h64q3 -37 30.5 -62.5t65.5 -25.5q40 0 68 28t28 68t-28 68t-68 28zM176 184q0 -33 -23.5 -56.5t-56.5 -23.5t-56.5 23.5t-23.5 56.5t23.5 56.5t56.5 23.5q7 0 14 -1l-22 -77q-2 -7 6 -10h2q6 0 8 6l22 76q11 -4 20 -11.5t16 -17t10.5 -21.5 t3.5 -24zM404 192h-68q5 43 43 63zM255 199l-98 137h177zM270 192l79 138l24 -60q-22 -11 -36.5 -32t-16.5 -46h-50zM416 104q-31 0 -54 21t-26 51h80q8 0 8 8l-1 3l-29 74q11 3 22 3q22 0 40.5 -10.5t29 -29t10.5 -40.5q0 -33 -23.5 -56.5t-56.5 -23.5z" />
<glyph unicode="&#xe056;" d="M480 288h-32l-32 160h-40l8 64h-96l8 -64h-80l8 64h-96l8 -64h-40l-32 -160h-32l-32 -256v-32h192v288h32v32h64v-32h32v-288h192v32z" />
<glyph unicode="&#xe057;" d="M0 256q0 -106 75 -181t181 -75t181 75t75 181t-75 181t-181 75t-181 -75t-75 -181zM448 256q0 -54 -28 -100l-264 264q46 28 100 28q80 0 136 -56t56 -136zM64 256q0 27 7 52.5t21 47.5l264 -264q-46 -28 -100 -28q-80 0 -136 56t-56 136z" />
<glyph unicode="&#xe058;" d="M256 512q-106 0 -181 -75t-75 -181t75 -181t181 -75t181 75t75 181t-75 181t-181 75zM256 480q84 0 147 -55l-316 -316q-55 63 -55 147q0 93 65.5 158.5t158.5 65.5zM256 32q-84 0 -147 55l316 316q26 -30 40.5 -68t14.5 -79q0 -93 -65.5 -158.5t-158.5 -65.5z" />
<glyph unicode="&#xe059;" d="M479 320h-28h-1q-8 0 -16 4.5t-12.5 12t-5.5 15.5q0 68 -48 114t-118 46h-84q-45 0 -83 -22t-60.5 -60t-22.5 -83v-182q0 -68 49 -116.5t117 -48.5h180q69 0 117.5 48.5t48.5 116.5v117q0 15 -10 26.5t-23 11.5zM160 384h96q13 0 22.5 -9.5t9.5 -22.5t-9.5 -22.5 t-22.5 -9.5h-96q-13 0 -22.5 9.5t-9.5 22.5t9.5 22.5t22.5 9.5zM352 128h-192q-13 0 -22.5 9.5t-9.5 22.5t9.5 22.5t22.5 9.5h192q13 0 22.5 -9.5t9.5 -22.5t-9.5 -22.5t-22.5 -9.5z" />
<glyph unicode="&#xe05a;" d="M184 304h72q10 0 17 7t7 17t-7 17t-17 7h-72q-10 0 -17 -7t-7 -17t7 -17t17 -7zM328 208h-144q-10 0 -17 -7t-7 -17t7 -17t17 -7h144q10 0 17 7t7 17t-7 17t-17 7zM427 512h-342q-35 0 -60 -25t-25 -60v-342q0 -35 25 -60t60 -25h342q35 0 60 25t25 60v342q0 35 -25 60 t-60 25zM448 188q0 -34 -16.5 -62.5t-45.5 -45t-63 -16.5h-134q-52 0 -88.5 36.5t-36.5 87.5v136q0 51 36.5 87.5t88.5 36.5h63q52 0 88 -34.5t36 -85.5q0 -6 4 -11.5t9.5 -9t12.5 -3.5h21q5 0 10 -2.5t8 -6.5t5 -9t2 -10v-88z" />
<glyph unicode="&#xe05b;" d="M391 352l-135 136v-193l-101 100l-22 -22l116 -117l-116 -117l22 -22l101 100v-193l135 136l-96 96zM288 410l57 -58l-57 -57v115zM345 160l-57 -58v115z" />
<glyph unicode="&#xe05c;" d="M321 273v5q15 3 29.5 7t29 10.5t26.5 16t21.5 21t14.5 27.5t5 35q0 59 -48 90q-22 14 -53.5 20.5t-78.5 6.5h-235v-28q44 -4 54.5 -16t10.5 -62v-300q0 -49 -10.5 -61t-54.5 -16v-29h200q107 0 169 34q35 18 55 48.5t20 68.5q0 106 -155 122zM192 435q0 26 7 33 q12 11 37 11q17 0 32 -5.5t27.5 -17t20 -31t7.5 -45.5q0 -32 -12 -52.5t-37 -31t-64 -10.5h-18v149zM252 34q-33 -1 -46.5 15t-13.5 59v146h16q140 0 140 -111q0 -14 -2 -26.5t-6.5 -22.5t-10 -19t-12.5 -15t-14.5 -11t-16 -8.5t-17 -5t-17.5 -1.5z" />
<glyph unicode="&#xe05d;" d="M512 427l-2 9l-40 -9l22 36l-8 5l-21 -36l-9 41l-9 -2l9 -41l-35 22l-5 -8l31 -20q-11 -4 -21 -3.5t-18 2.5t-21 12.5t-23 18.5t-32 29h-1q-22 21 -45 27q-22 5 -42 -2q-11 -5 -20.5 -13t-16.5 -20.5t-9 -26.5h-20q-7 0 -11.5 -4.5t-4.5 -11.5v-22q-69 -16 -114.5 -72.5 t-45.5 -129.5q0 -86 61 -147t147 -61t147 61t61 147q0 73 -45.5 129.5t-114.5 72.5v22q0 7 -4.5 11.5t-11.5 4.5h-24q2 9 5 16t7.5 12t9.5 8.5t10 6.5q33 12 70 -21l1 -1q52 -48 72 -58q8 -5 16.5 -7t16.5 -2q11 0 23 3l-18 -29l8 -5l22 36l9 -41l9 2l-9 41l34 -22l5 8 l-34 22z" />
<glyph unicode="&#xe05e;" d="M384 448q-73 0 -128 -49q-55 49 -128 49t-128 -49v-9v-38v-192v-40v-7l1 -1l3.5 -3.5t3.5 -3t4 -2.5t4 -2.5t3.5 -3t3.5 -2.5t4 -3q15 12 31 20q33 16 70 16t70 -16q3 -2 6.5 -3.5t6.5 -3.5l6 -4l6 -4t6 -5q1 -1 2.5 -2t2.5 -2q12 -11 22 -24q5 7 10.5 12.5l11.5 11.5 q3 2 5 4q8 6 15.5 11t15.5 9q33 16 70 16t70 -16q5 -3 10.5 -6t10.5 -6.5t10 -7.5q7 5 13.5 10t12.5 10l0.5 0.5l0.5 0.5v7v40v192v38v9q-55 49 -128 49zM128 160q-52 0 -96 -26v250q20 15 44.5 23.5t51.5 8.5q53 0 96 -32v-250q-44 26 -96 26zM384 160q-52 0 -96 -26v250 q20 15 44.5 23.5t51.5 8.5q53 0 96 -32v-250q-44 26 -96 26z" />
<glyph unicode="&#xe05f;" d="M448 448v-416h-336q-20 0 -34 14t-14 34t14 34t34 14h304v384h-320q-26 0 -45 -19t-19 -45v-384q0 -26 19 -45t45 -19h384v448h-32zM128 96h288v-32h-288v32z" />
<glyph unicode="&#xe060;" d="M96 512v-512l160 160l160 -160v512h-320zM384 77l-128 128l-128 -128v403h256v-403z" />
<glyph unicode="&#xe061;" d="M96 512v-512l160 160l160 -160v512h-320z" />
<glyph unicode="&#xe062;" d="M288 367l121 41l102 -303l-121 -41zM0 64h128v352h-128v-352zM32 352h64v-32h-64v32zM160 64h128v352h-128v-352zM192 352h64v-32h-64v32z" />
<glyph unicode="&#xe063;" d="M288 352v128h8q8 0 8 8v16q0 8 -8 8h-80q-8 0 -8 -8v-16q0 -8 8 -8h8v-128q0 -17 -10 -32t-22 -25t-22 -24.5t-10 -30.5v-224q0 -7 4.5 -11.5t11.5 -4.5h160q7 0 11.5 4.5t4.5 11.5v224q0 16 -10 30.5t-22 24.5t-22 25t-10 32zM320 40q-27 -8 -64 -8t-64 8v160 q27 -8 64 -8t64 8v-160z" />
<glyph unicode="&#xe064;" d="M288 352v128h8q8 0 8 8v16q0 8 -8 8h-80q-8 0 -8 -8v-16q0 -8 8 -8h8v-128q0 -17 -10 -32t-22 -25t-22 -24.5t-10 -30.5v-224q0 -7 4.5 -11.5t11.5 -4.5h160q7 0 11.5 4.5t4.5 11.5v224q0 16 -10 30.5t-22 24.5t-22 25t-10 32z" />
<glyph unicode="&#xe065;" d="M416 480h-320l-96 -96v-336q0 -7 4.5 -11.5t11.5 -4.5h480q7 0 11.5 4.5t4.5 11.5v336zM256 96l-160 128h96v96h128v-96h96zM77 416l32 32h294l32 -32h-358z" />
<glyph unicode="&#xe066;" d="M416 480h-320l-96 -96v-336q0 -7 4.5 -11.5t11.5 -4.5h480q7 0 11.5 4.5t4.5 11.5v336zM320 192v-96h-128v96h-96l160 128l160 -128h-96zM77 416l32 32h294l32 -32h-358z" />
<glyph unicode="&#xe067;" d="M32 448h448v-64h-448v64zM64 64h384v288h-384v-288zM192 320h128v-32h-128v32z" />
<glyph unicode="&#xe068;" d="M160 0h192l-64 64v233q15 8 23.5 23t8.5 32q0 27 -18.5 45.5t-45.5 18.5t-45.5 -18.5t-18.5 -45.5q0 -37 32 -55v-233zM356 432q28 -35 28 -80t-28 -80l25 -20q35 44 35 100q0 11 -1.5 22t-4.5 21.5t-7.5 20.5t-9.5 19t-12 17zM131 452q-35 -44 -35 -100q0 -8 1 -16 t2.5 -15.5t3.5 -15t5 -14.5t6.5 -14t7.5 -13t9 -12l25 20q-28 35 -28 80t28 80zM56 512q-56 -70 -56 -160t56 -160l25 20q-49 61 -49 140t49 140zM456 512l-25 -20q49 -61 49 -140t-49 -140l25 -20q56 70 56 160t-56 160z" />
<glyph unicode="&#xe069;" d="M409 363q-15 50 -63 75t-101.5 16.5t-83.5 -48.5q-25 -36 -20 -60t21 -37.5t24 -8.5q9 -51 115 -35q40 -9 67 -6.5t41.5 14.5t19 27.5t-1 32.5t-18.5 30zM259 512q-36 0 -65.5 -11t-47 -26t-30.5 -39.5t-18.5 -41.5t-8.5 -41t-3 -30.5v-17.5q0 -7 -2.5 -15t-7 -16.5 t-11.5 -18t-16 -18.5q-16 -17 -13 -31t18 -14h52q-1 -5 -2.5 -13.5t-2 -31t2.5 -39t13.5 -30.5t28.5 -14q23 0 36.5 -3t19 -11.5t6.5 -16.5t1 -26v-7h16v7q0 42 -14 56q-17 17 -65 17q-5 0 -9 1.5t-7 5.5q-13 16 -13 59q1 23 4 43l4 19h-19h-52q-2 0 -2 1q-1 2 1 6.5t7 10.5 q42 41 42 79v2v13.5t1.5 21t4.5 27.5q12 56 43 87q18 19 43 29q29 11 65 11q16 0 30 -1.5t27.5 -4t25.5 -6.5t23 -9q39 -19 63 -53q7 -9 12 -19.5t9 -22t7 -23.5t4 -24q1 -9 1 -18.5t-1 -18.5t-2.5 -18t-3.5 -18t-5 -17q-12 -33 -36 -67q-15 -22 -22 -36t-13.5 -49.5 t-6.5 -90.5h16q0 60 7.5 95.5t17 49t25.5 38t27 55.5q11 32 12.5 68.5t-10 73t-35.5 66t-68.5 48t-103.5 18.5z" />
<glyph unicode="&#xe06a;" d="M109 192h115v32h64v-32h115l109 109v51q0 13 -9.5 22.5t-22.5 9.5h-96l-64 64h-128l-64 -64h-96q-13 0 -22.5 -9.5t-9.5 -22.5v-51zM205 416h102l32 -32h-166zM416 160h-128v-32h-64v32h-128l-96 96v-160q0 -13 9.5 -22.5t22.5 -9.5h448q13 0 22.5 9.5t9.5 22.5v160z" />
<glyph unicode="&#xe06b;" d="M464 352h-112v64q0 13 -9.5 22.5t-22.5 9.5h-128q-13 0 -22.5 -9.5t-9.5 -22.5v-64h-112q-20 0 -34 -14t-14 -34v-224q0 -20 14 -34t34 -14h416q20 0 34 14t14 34v224q0 20 -14 34t-34 14zM192 416h128v-64h-128v64z" />
<glyph unicode="&#xe06c;" d="M480 384h-128v32q0 13 -9.5 22.5t-22.5 9.5h-128q-13 0 -22.5 -9.5t-9.5 -22.5v-32h-128q-13 0 -22.5 -9.5t-9.5 -22.5v-256q0 -13 9.5 -22.5t22.5 -9.5h448q13 0 22.5 9.5t9.5 22.5v256q0 13 -9.5 22.5t-22.5 9.5zM192 416h128v-32h-128v32zM480 256h-64v-48 q0 -7 -4.5 -11.5t-11.5 -4.5h-32q-7 0 -11.5 4.5t-4.5 11.5v48h-192v-48q0 -7 -4.5 -11.5t-11.5 -4.5h-32q-7 0 -11.5 4.5t-4.5 11.5v48h-64v32h448v-32z" />
<glyph unicode="&#xe06d;" d="M224 128q0 13 9.5 22.5t22.5 9.5t22.5 -9.5t9.5 -22.5t-9.5 -22.5t-22.5 -9.5t-22.5 9.5t-9.5 22.5zM256 448q-47 0 -91.5 -13.5t-82 -38t-67.5 -57.5l24 -21q41 46 97 72t120 26q43 0 83 -12t73.5 -34t60.5 -52l24 21q-45 51 -107.5 80t-133.5 29zM256 352 q-50 0 -93.5 -20.5t-75.5 -55.5l25 -22q57 66 144 66t144 -66l25 22q-32 35 -75.5 55.5t-93.5 20.5zM256 256q-19 0 -37 -5.5t-33 -15t-26 -23.5l24 -21q28 33 72 33t72 -33l24 21q-38 44 -96 44z" />
<glyph unicode="&#xe06e;" d="M224 320l-128 -320h49l111 97l111 -97h49l-128 320h-64zM149 46l43 108l40 -35zM363 46l-83 73l40 35zM256 140l-52 45l42 103h20l42 -103zM367 448q17 -30 17 -64t-17 -64l28 -16q21 37 21 80t-21 80zM145 320q-17 30 -17 64t17 64l-28 16q-21 -37 -21 -80t21 -80z M34 512q-34 -59 -34 -128t34 -128l28 16q-30 52 -30 112t30 112zM512 384q0 69 -34 128l-28 -16q30 -52 30 -112t-30 -112l28 -16q34 59 34 128zM224 384q0 13 9.5 22.5t22.5 9.5t22.5 -9.5t9.5 -22.5t-9.5 -22.5t-22.5 -9.5t-22.5 9.5t-9.5 22.5z" />
<glyph unicode="&#xe06f;" d="M160 192q-17 0 -29 -12t-21.5 -30t-20.5 -37t-33.5 -36t-55.5 -24q18 -12 49 -18t71.5 0t71.5 29q27 21 31.5 51.5t-14 53.5t-49.5 23zM506 474q-14 14 -42 -4t-68 -54.5t-62 -49.5q-19 -12 -37.5 -26t-36 -32t-27 -35t-9 -35t14 -31.5t31.5 -14t35 9t35 27t32 36 t26 37.5q7 12 19 27.5t24 28.5t25 27.5t22.5 26.5t16.5 24.5t7 21t-6 16.5z" />
<glyph unicode="&#xe070;" d="M320 450v30q0 13 -9.5 22.5t-22.5 9.5h-64q-13 0 -22.5 -9.5t-9.5 -22.5v-30q32 14 64 14t64 -14zM480 352l32 64v64l-48 -96h-57q-7 7 -20 14l-70 36q-29 14 -61 14t-61 -14l-70 -36q-7 -4 -12 -7.5t-8 -6.5h-57l-48 96v-64l32 -64h64v-64l-96 -32v-32l96 32v-96h-32 l-64 -160h32l51 128h17q7 -21 21 -32l110 -88q10 -8 25 -8t25 8l110 88q14 11 21 32h17l51 -128h32l-64 160h-32v96l96 -32v32l-96 32v64h64zM272 64h-32v320h32v-320z" />
<glyph unicode="&#xe071;" d="M480 256q-16 192 -32 224t-192 32t-192 -32q-7 -14 -15 -70t-13 -105l-4 -49v-192h64v-32q0 -13 9.5 -22.5t22.5 -9.5t22.5 9.5t9.5 22.5v32h192v-32q0 -13 9.5 -22.5t22.5 -9.5t22.5 9.5t9.5 22.5v32h64v192zM160 480h192v-32h-192v32zM105 311q7 65 14 97q17 4 47 6 t90 2h29t29 -0.5t32 -1.5q30 -2 47 -6q2 -9 4 -20t4.5 -31.5t5.5 -45.5q1 -11 3 -23h-308q1 4 1.5 7.5t1 7.5t0.5 8zM128 146q-19 0 -32.5 13.5t-13.5 32.5t13.5 32.5t32.5 13.5q9 0 18 -3.5t15 -9.5t9.5 -15t3.5 -18q0 -13 -6 -23.5t-16.5 -16.5t-23.5 -6zM384 146 q-13 0 -23.5 6t-16.5 16.5t-6 23.5q0 19 13.5 32.5t32.5 13.5t32.5 -13.5t13.5 -32.5t-13.5 -32.5t-32.5 -13.5z" />
<glyph unicode="&#xe072;" d="M364 256q26 16 47.5 40t36.5 52.5t23.5 62t8.5 69.5q0 8 -0.5 16t-1.5 16h-444q-2 -16 -2 -32q0 -71 31.5 -131t84.5 -93q-53 -33 -84.5 -93t-31.5 -131v-8t0.5 -8t0.5 -8t1 -8h444q1 8 1.5 16t0.5 16q0 71 -31.5 131t-84.5 93zM80 32q0 72 29.5 126t82.5 73v50 q-53 19 -82.5 73t-29.5 126h352q0 -47 -13 -87t-38.5 -69.5t-60.5 -42.5v-50q53 -19 82.5 -73t29.5 -126h-352zM310 177q-38 22 -38 63v32q0 8 1 14t4.5 15t11.5 18t21 16q29 17 48 49h-204q9 -16 21.5 -28.5t26.5 -20.5q38 -22 38 -63v-32q0 -41 -38 -63q-27 -16 -46 -46 t-25 -67h250q-6 38 -25 67.5t-46 45.5z" />
<glyph unicode="&#xe073;" d="M347 198q-24 15 -33.5 22t-17.5 16.5t-8 19.5t8 19.5t17.5 16.5t33.5 22q46 29 73.5 82t27.5 116h-384q0 -63 27.5 -116t73.5 -82q18 -11 25.5 -16.5t17.5 -13.5t13 -14.5t3 -13.5q0 -14 -12.5 -25t-46.5 -33q-46 -29 -73.5 -82t-27.5 -116h384q0 63 -27.5 116t-73.5 82z M130 415q-7 13 -11.5 26.5t-7.5 27.5h290q-6 -29 -19 -54q-9 -17 -20 -31h-212q-11 14 -20 31zM248 129q0 -9 -22 -24t-44 -32t-22 -30h-49q6 29 19 54q22 42 58 64v1l2 1q44 29 58 45v-79zM401 43h-49q0 10 -14 23.5t-30 23.5t-30 21t-14 18v79q14 -16 58 -45l2 -1v-1 q36 -22 58 -64q13 -25 19 -54z" />
<glyph unicode="&#xe074;" d="M352 416h-224l96 -96v-128l-96 -96h224l-96 96v128zM480 435v77h-480v-77l160 -160v-38l-160 -160v-77h480v77l-160 160v38zM448 64h-416l160 160v64l-160 160h416l-160 -160v-64z" />
<glyph unicode="&#xe075;" d="M190 207q-36 -20 -60.5 -57.5t-31.5 -85.5h316q-7 48 -31.5 85.5t-60.5 57.5q-16 11 -24 20.5t-9 14.5t-1 14v8t2 8t5.5 9.5t10 10.5t16.5 13q36 20 60.5 57.5t31.5 85.5h-316q7 -48 31.5 -85.5t60.5 -57.5q16 -11 24 -20.5t9 -14.5t1 -14v-8t-2 -8t-5.5 -9.5t-10 -10.5 t-16.5 -13zM64 32h384v-32h-384v32zM64 512h384v-32h-384v32z" />
<glyph unicode="&#xe076;" d="M352 512h-192l-96 -64v-128h384v128zM320 352h-32v21q0 2 -1 4t-2.5 3.5t-3.5 2.5t-4 1h-42q-2 0 -4 -1t-3.5 -2.5t-2.5 -3.5t-1 -4v-21h-32v53q2 10 11 11h106q5 0 8 -3t3 -8v-53zM64 160h384v128h-384v-128zM192 245q0 5 3 8t8 3h106q5 0 8 -3t3 -8v-53h-32v21 q0 3 -1.5 5.5t-4 4t-5.5 1.5h-42q-2 0 -4 -1t-3.5 -2.5t-2.5 -3.5t-1 -4v-21h-32v53zM64 0h384v128h-384v-128zM192 85q0 5 3 8t8 3h106q5 0 8 -3t3 -8v-53h-32v21q0 3 -1.5 5.5t-4 4t-5.5 1.5h-42q-2 0 -4 -1t-3.5 -2.5t-2.5 -3.5t-1 -4v-21h-32v53z" />
<glyph unicode="&#xe077;" d="M392 104q-31 -40 -83 -40q-6 0 -11.5 0.5t-11 1.5t-10.5 2.5t-9.5 3.5t-9.5 4.5t-9 5.5l-8 6q-29 -24 -69 -24q-52 0 -83 40q-17 -8 -37 -8q-28 0 -51 16v-64q0 -20 70.5 -34t169.5 -14t169.5 14t70.5 34v64q-23 -16 -51 -16q-7 0 -13.5 1t-12.5 2.5t-11 4.5zM417 239 q-18 -4 -38.5 -6.5t-43 -4.5t-46.5 -3t-49 -1q-103 0 -177 15q-37 7 -60 18q-1 0 -3 1v-82q0 -20 15 -34t36 -14q4 0 8 0.5t7.5 1.5t6.5 2q25 11 29 37h1v-5v-4q0 -20 13 -37q20 -27 55 -27q28 0 48 18q10 8 15.5 20.5t5.5 25.5q0 -27 21 -46q10 -9 22 -13.5t26 -4.5 q17 0 31.5 7t23.5 20q13 17 13 37v9h1q4 -26 29 -37q3 -1 6.5 -2t7.5 -1.5t8 -0.5q21 0 36 14t15 34v82q-2 -1 -3 -1q-11 -5 -26 -9.5t-34 -8.5zM240 256q99 0 169.5 14t70.5 34q0 13 -29.5 23.5t-81 17t-113.5 7.5v64h-32v-64q-94 -1 -159 -15t-65 -33q0 -20 70.5 -34 t169.5 -14zM240 441q6 0 11.5 3t8.5 8.5t3 11.5q0 22 -23 48q-23 -26 -23 -48q0 -10 6.5 -16.5t16.5 -6.5z" />
<glyph unicode="&#xe078;" d="M384 512h-256q-13 0 -22.5 -9.5t-9.5 -22.5v-448q0 -13 9.5 -22.5t22.5 -9.5h256q13 0 22.5 9.5t9.5 22.5v448q0 13 -9.5 22.5t-22.5 9.5zM192 32h-64v64h64v-64zM192 128h-64v64h64v-64zM192 224h-64v64h64v-64zM288 32h-64v64h64v-64zM288 128h-64v64h64v-64zM288 224 h-64v64h64v-64zM384 32h-64v64h64v-64zM384 128h-64v64h64v-64zM384 224h-64v64h64v-64zM384 320h-256v160h256v-160z" />
<glyph unicode="&#xe079;" d="M192 512h-160q-13 0 -22.5 -9.5t-9.5 -22.5v-160q0 -13 9.5 -22.5t22.5 -9.5h160q13 0 22.5 9.5t9.5 22.5v160q0 13 -9.5 22.5t-22.5 9.5zM192 384h-160v32h160v-32zM480 512h-160q-13 0 -22.5 -9.5t-9.5 -22.5v-448q0 -13 9.5 -22.5t22.5 -9.5h160q13 0 22.5 9.5 t9.5 22.5v448q0 13 -9.5 22.5t-22.5 9.5zM480 192h-160v32h160v-32zM480 288h-160v32h160v-32zM192 224h-160q-13 0 -22.5 -9.5t-9.5 -22.5v-160q0 -13 9.5 -22.5t22.5 -9.5h160q13 0 22.5 9.5t9.5 22.5v160q0 13 -9.5 22.5t-22.5 9.5zM192 96h-64v-64h-32v64h-64v32h64v64 h32v-64h64v-32z" />
<glyph unicode="&#xe07a;" d="M0 32q0 -13 9.5 -22.5t22.5 -9.5h448q13 0 22.5 9.5t9.5 22.5v288h-512v-288zM352 288h128v-64h-128v64zM352 192h128v-64h-128v64zM352 96h128v-64h-128v64zM192 288h128v-64h-128v64zM192 192h128v-64h-128v64zM192 96h128v-64h-128v64zM32 288h128v-64h-128v64z M32 192h128v-64h-128v64zM32 96h128v-64h-128v64zM480 448h-64v46q0 5 -2 9t-6 6.5t-8 2.5t-8 -2.5t-6 -6.5t-2 -9v-46h-256v46q0 7 -4.5 12.5t-11.5 5.5q-4 0 -8 -2.5t-6 -6.5t-2 -9v-46h-64q-13 0 -22.5 -9.5t-9.5 -22.5v-64h512v64q0 13 -9.5 22.5t-22.5 9.5zM112 368 q-13 0 -22.5 9.5t-9.5 22.5q0 18 16 28v-28q0 -7 4.5 -11.5t11.5 -4.5t11.5 4.5t4.5 11.5v28q16 -10 16 -28q0 -13 -9.5 -22.5t-22.5 -9.5zM400 368q-13 0 -22.5 9.5t-9.5 22.5q0 18 16 28v-28q0 -7 4.5 -11.5t11.5 -4.5t11.5 4.5t4.5 11.5v28q16 -10 16 -28 q0 -13 -9.5 -22.5t-22.5 -9.5z" />
<glyph unicode="&#xe07b;" d="M160 320h64v-64h-64v64zM256 320h64v-64h-64v64zM352 320h64v-64h-64v64zM64 128h64v-64h-64v64zM160 128h64v-64h-64v64zM256 128h64v-64h-64v64zM160 224h64v-64h-64v64zM256 224h64v-64h-64v64zM352 224h64v-64h-64v64zM64 224h64v-64h-64v64zM416 512v-32h-64v32 h-224v-32h-64v32h-64v-512h480v512h-64zM448 32h-416v352h416v-352z" />
<glyph unicode="&#xe07c;" d="M64 352h32v-32h-32v32zM128 352h32v-32h-32v32zM192 352h32v-32h-32v32zM256 352h32v-32h-32v32zM320 352h32v-32h-32v32zM384 352h32v-32h-32v32zM64 288h32v-32h-32v32zM128 288h32v-32h-32v32zM192 288h32v-32h-32v32zM256 288h32v-32h-32v32zM320 288h32v-32h-32v32z M384 288h32v-32h-32v32zM64 224h32v-32h-32v32zM128 224h32v-32h-32v32zM192 224h32v-32h-32v32zM256 224h32v-32h-32v32zM320 224h32v-32h-32v32zM384 224h32v-32h-32v32zM64 160h32v-32h-32v32zM128 160h32v-32h-32v32zM192 160h32v-32h-32v32zM256 160h32v-32h-32v32z M320 160h32v-32h-32v32zM384 160h32v-32h-32v32zM64 96h32v-32h-32v32zM128 96h32v-32h-32v32zM192 96h32v-32h-32v32zM256 96h32v-32h-32v32zM320 96h32v-32h-32v32zM384 96h32v-32h-32v32zM416 480v32h-64v-64h-32v32h-160v-32h-32v64h-64v-32h-64v-480h480v480h-64z M448 32h-416v352h416v-352z" />
<glyph unicode="&#xe07d;" d="M155 240q0 42 29.5 71.5t71.5 29.5t71.5 -29.5t29.5 -71.5t-29.5 -71.5t-71.5 -29.5t-71.5 29.5t-29.5 71.5zM480 384h-112q-5 21 -9 32t-14 21.5t-25 10.5h-128q-15 0 -25 -10.5t-14 -21.5t-9 -32h-112q-13 0 -22.5 -9.5t-9.5 -22.5v-256q0 -13 9.5 -22.5t22.5 -9.5h448 q13 0 22.5 9.5t9.5 22.5v256q0 13 -9.5 22.5t-22.5 9.5zM256 96q-60 0 -102 42t-42 102t42 102t102 42t102 -42t42 -102t-42 -102t-102 -42zM480 320h-64v32h64v-32z" />
<glyph unicode="&#xe07e;" d="M256 352q-53 0 -90.5 -37.5t-37.5 -90.5t37.5 -90.5t90.5 -37.5t90.5 37.5t37.5 90.5t-37.5 90.5t-90.5 37.5zM256 128q-40 0 -68 28t-28 68t28 68t68 28t68 -28t28 -68t-28 -68t-68 -28zM480 416h-107l-21 64h-192l-21 -64h-107q-13 0 -22.5 -9.5t-9.5 -22.5v-320 q0 -13 9.5 -22.5t22.5 -9.5h448q13 0 22.5 9.5t9.5 22.5v320q0 13 -9.5 22.5t-22.5 9.5zM480 64h-448v320h128l21 64h150l21 -64h128v-320z" />
<glyph unicode="&#xe07f;" d="M320 416h-256q-26 0 -45 -19t-19 -45v-192q0 -26 19 -45t45 -19h256q26 0 45 19t19 45v192q0 26 -19 45t-45 19zM416 288v-64l96 -96v256z" />
<glyph unicode="&#xe080;" d="M288 384h-224q-13 0 -22.5 -9.5t-9.5 -22.5v-192q0 -13 9.5 -22.5t22.5 -9.5h224q13 0 22.5 9.5t9.5 22.5v192q0 13 -9.5 22.5t-22.5 9.5zM352 274v-36l128 -110v256z" />
<glyph unicode="&#xe081;" d="M480 384h-32v32h-160v-32h-256q-13 0 -22.5 -9.5t-9.5 -22.5v-256q0 -13 9.5 -22.5t22.5 -9.5h448q13 0 22.5 9.5t9.5 22.5v256q0 13 -9.5 22.5t-22.5 9.5zM256 96q-53 0 -90.5 37.5t-37.5 90.5t37.5 90.5t90.5 37.5t90.5 -37.5t37.5 -90.5t-37.5 -90.5t-90.5 -37.5z M192 224q0 27 18.5 45.5t45.5 18.5t45.5 -18.5t18.5 -45.5t-18.5 -45.5t-45.5 -18.5t-45.5 18.5t-18.5 45.5z" />
<glyph unicode="&#xe082;" d="M192 368q0 33 23.5 56.5t56.5 23.5t56.5 -23.5t23.5 -56.5t-23.5 -56.5t-56.5 -23.5t-56.5 23.5t-23.5 56.5zM0 368q0 33 23.5 56.5t56.5 23.5t56.5 -23.5t23.5 -56.5t-23.5 -56.5t-56.5 -23.5t-56.5 23.5t-23.5 56.5zM384 208v48q0 13 -9.5 22.5t-22.5 9.5h-80h-192h-48 q-13 0 -22.5 -9.5t-9.5 -22.5v-160q0 -13 9.5 -22.5t22.5 -9.5h320q13 0 22.5 9.5t9.5 22.5v48l128 -80v224zM320 128h-256v96h256v-96z" />
<glyph unicode="&#xe083;" d="M507 101l-155 155l155 155q3 3 4 6q2 4 1 9t-5 8l-73 73q-7 8 -17 4l-6 -4l-155 -155l-155 155q-3 3 -6 4q-10 4 -17 -4l-73 -73q-8 -7 -4 -17l4 -6l155 -155l-155 -155q-3 -3 -4 -6q-4 -10 4 -17l73 -73q7 -8 17 -4q3 1 6 4l155 155l155 -155q3 -3 6 -4q10 -4 17 4 l73 73q8 7 4 17l-1.5 3t-2.5 3z" />
<glyph unicode="&#xe084;" d="M512 384l-128 128l-128 -128l-128 128l-128 -128l128 -128l-128 -128l128 -128l128 128l128 -128l128 128l-128 128z" />
<glyph unicode="&#xe085;" d="M256 512q-106 0 -181 -75t-75 -181t75 -181t181 -75t181 75t75 181t-75 181t-181 75zM416 160l-64 -64l-96 96l-96 -96l-64 64l96 96l-96 96l64 64l96 -96l96 96l64 -64l-96 -96z" />
<glyph unicode="&#xe086;" d="M256 512q-106 0 -181 -75t-75 -181t75 -181t181 -75t181 75t75 181t-75 181t-181 75zM393 169q2 -3 3.5 -6t1.5 -6.5t-1.5 -6.5t-3.5 -6l-25 -25q-3 -2 -6 -3.5t-6.5 -1.5t-6.5 1.5t-6 3.5l-87 87l-87 -87q-5 -5 -12.5 -5t-12.5 5l-25 25q-5 5 -5 12.5t5 12.5l87 87 l-87 87q-3 3 -4.5 8t0 9.5t4.5 7.5l25 25q5 5 12.5 5t12.5 -5l87 -87l87 87q3 3 8 4.5t9.5 0t7.5 -4.5l25 -25q2 -3 3.5 -6t1.5 -6.5t-1.5 -6.5t-3.5 -6l-87 -87z" />
<glyph unicode="&#xe087;" d="M436 352l-84 128h-192l-84 -128h-76v-224h64v-80q0 -7 4.5 -11.5t11.5 -4.5h64q7 0 11.5 4.5t4.5 11.5v80h192v-80q0 -7 4.5 -11.5t11.5 -4.5h64q7 0 11.5 4.5t4.5 11.5v80h64v224h-76zM177 448h158l63 -96h-284zM128 179q-19 0 -32 13t-13 32t13 32t32 13q5 0 10 -1 t9.5 -3.5t8.5 -5.5t7 -7t5.5 -8.5t3.5 -9.5t1 -10q0 -19 -13 -32t-32 -13zM384 179q-12 0 -22.5 6t-16.5 16.5t-6 22.5q0 9 3.5 17.5t9.5 14.5t14.5 9.5t17.5 3.5q19 0 32 -13t13 -32q0 -12 -6 -22.5t-16.5 -16.5t-22.5 -6z" />
<glyph unicode="&#xe088;" d="M160 112q0 20 14 34t34 14t34 -14t14 -34t-14 -34t-34 -14t-34 14t-14 34zM288 112q0 20 14 34t34 14t34 -14t14 -34t-14 -34t-34 -14t-34 14t-14 34zM436 416l-70 -192h-190l-80 224h-96v-32h73l80 -224h235l82 224h-34zM256 256h32v64h64v32h-64v64h-32v-64h-64v-32h64 v-64z" />
<glyph unicode="&#xe089;" d="M363 373l-22 22l-85 -84l-53 52l-22 -22l75 -76zM160 112q0 20 14 34t34 14t34 -14t14 -34t-14 -34t-34 -14t-34 14t-14 34zM288 112q0 20 14 34t34 14t34 -14t14 -34t-14 -34t-34 -14t-34 14t-14 34zM436 416l-70 -192h-190l-80 224h-96v-32h73l80 -224h235l82 224h-34z " />
<glyph unicode="&#xe08a;" d="M160 112q0 20 14 34t34 14t34 -14t14 -34t-14 -34t-34 -14t-34 14t-14 34zM288 112q0 20 14 34t34 14t34 -14t14 -34t-14 -34t-34 -14t-34 14t-14 34zM436 416l-70 -192h-190l-80 224h-96v-32h73l80 -224h235l82 224h-34zM192 352h160v-32h-160v32z" />
<glyph unicode="&#xe08b;" d="M407 192l102 210l-29 14l-16 -32h-353l-15 32h-96v-32h76l93 -192h238zM224 224h-35l-16 32h51v-32zM352 352h97l-31 -64h-66v64zM352 256h50l-15 -32h-35v32zM256 352h64v-64h-64v64zM256 256h64v-32h-64v32zM127 352h97v-64h-66zM160 112q0 20 14 34t34 14t34 -14 t14 -34t-14 -34t-34 -14t-34 14t-14 34zM320 112q0 20 14 34t34 14t34 -14t14 -34t-14 -34t-34 -14t-34 14t-14 34z" />
<glyph unicode="&#xe08c;" d="M160 112q0 20 14 34t34 14t34 -14t14 -34t-14 -34t-34 -14t-34 14t-14 34zM288 112q0 20 14 34t34 14t34 -14t14 -34t-14 -34t-34 -14t-34 14t-14 34zM436 416l-23 -64h-283l-34 96h-96v-32h73l80 -224h235l82 224h-34zM366 224h-190l-34 96h259z" />
<glyph unicode="&#xe08d;" d="M64 48q0 20 14 34t34 14t34 -14t14 -34t-14 -34t-34 -14t-34 14t-14 34zM384 48q0 20 14 34t34 14t34 -14t14 -34t-14 -34t-34 -14t-34 14t-14 34zM480 256v192h-416q0 27 -18.5 45.5t-45.5 18.5v-32q13 0 22.5 -9.5t9.5 -22.5l24 -206q-24 -19 -24 -50q0 -27 18.5 -45.5 t45.5 -18.5h384v32h-384q-13 0 -22.5 9.5t-9.5 22.5z" />
<glyph unicode="&#xe08e;" d="M0 512v-512h512v512h-512zM480 32h-448v448h448v-448zM384 384l-160 -160l-96 96l-64 -64l160 -160l224 224z" />
<glyph unicode="&#xe08f;" d="M206 242l-101 90l-43 -42q32 -30 89.5 -90.5t81.5 -89.5q33 55 68 106t73.5 100t66.5 82.5t71 82.5l-18 18q-65 -49 -141 -117.5t-103.5 -96zM384 32h-352v352h252q17 16 35 32h-319v-416h416v291q-4 -5 -8 -10.5t-8 -10.5t-8 -10.5t-8 -10.5v-217z" />
<glyph unicode="&#xe090;" d="M0 512v-512h512v512h-512zM480 32h-448v448h448v-448zM128 384h256v-256h-256v256z" />
<glyph unicode="&#xe091;" d="M0 416v-416h416v416h-416zM384 32h-352v352h352v-352zM96 320h224v-224h-224v224z" />
<glyph unicode="&#xe092;" d="M0 512v-512h512v512h-512zM480 32h-448v448h448v-448z" />
<glyph unicode="&#xe093;" d="M384 384v-352h-352v352h352zM416 416h-416v-416h416v416z" />
<glyph unicode="&#xe094;" d="M432 464l-240 -240l-112 112l-80 -80l192 -192l320 320z" />
<glyph unicode="&#xe095;" d="M492 480q-75 -56 -157 -130t-126 -120l-45 -46l-116 104l-48 -49q34 -32 99.5 -102t95.5 -105q71 118 145.5 215.5t171.5 209.5z" />
<glyph unicode="&#xe096;" d="M352 480l-192 -352l-64 96h-96l160 -224l352 480h-160z" />
<glyph unicode="&#xe097;" d="M240 480q-29 0 -59 -7t-57.5 -30t-27.5 -59v-212q0 -58 42 -99t102 -41t102 41t42 99v212q0 36 -27.5 59t-57.5 30t-59 7zM352 172q0 -44 -32 -76q-16 -15 -36 -23q-21 -9 -44 -9q-8 0 -15.5 1t-14.5 3t-14 5q-20 8 -36 23q-15 15 -23.5 34.5t-8.5 41.5v116h224v-116z M352 320h-96v128q33 -3 60 -16q18 -8 27 -20q5 -6 7 -13t2 -15v-64z" />
<glyph unicode="&#xe098;" d="M240 480q-21 0 -43.5 -4.5t-46 -14.5t-39 -30t-15.5 -47v-212q0 -58 42 -99t102 -41t102 41t42 99v212q0 27 -15.5 47t-39 30t-46 14.5t-43.5 4.5zM128 384q0 8 2 15t7 13q9 12 27 20q9 4 19.5 7.5t20.5 5.5t20 3v-128h-96v64zM352 172q0 -44 -32 -76q-16 -15 -36 -23 q-11 -5 -22 -7t-22 -2q-23 0 -44 9q-7 2 -13 5.5t-11.5 8t-11.5 9.5q-32 32 -32 76v116h224v-116z" />
<glyph unicode="&#xe099;" d="M288 464q0 20 -14 34t-34 14t-34 -14t-14 -34q0 -16 -15 -24t-33 -10t-33 -13t-15 -33h288q0 22 -15 33t-33 13t-33 10t-15 24zM240 441q-6 0 -11.5 3t-8.5 8.5t-3 11.5q0 10 6.5 16.5t16.5 6.5q6 0 11.5 -3t8.5 -8.5t3 -11.5q0 -10 -6.5 -16.5t-16.5 -6.5zM448 416h-32 v-64h-352v64h-32q-13 0 -22.5 -9.5t-9.5 -22.5v-352q0 -13 9.5 -22.5t22.5 -9.5h416q13 0 22.5 9.5t9.5 22.5v352q0 13 -9.5 22.5t-22.5 9.5zM416 64h-352v32h352v-32zM416 160h-352v32h352v-32zM416 256h-352v32h352v-32z" />
<glyph unicode="&#xe09a;" d="M384 448h-64v32q0 13 -9.5 22.5t-22.5 9.5h-64q-13 0 -22.5 -9.5t-9.5 -22.5v-32h-64v-64h256v64zM288 448h-64v32h64v-32zM432 448h-32v-32h16v-384h-320v384h16v32h-32q-7 0 -11.5 -4.5t-4.5 -11.5v-416q0 -7 4.5 -11.5t11.5 -4.5h352q7 0 11.5 4.5t4.5 11.5v416 q0 7 -4.5 11.5t-11.5 4.5z" />
<glyph unicode="&#xe09b;" d="M384 448h-64v32q0 13 -9.5 22.5t-22.5 9.5h-64q-13 0 -22.5 -9.5t-9.5 -22.5v-32h-64v-64h256v64zM288 448h-64v32h64v-32zM432 448h-32v-32h16v-384h-320v384h16v32h-32q-7 0 -11.5 -4.5t-4.5 -11.5v-416q0 -7 4.5 -11.5t11.5 -4.5h352q7 0 11.5 4.5t4.5 11.5v416 q0 7 -4.5 11.5t-11.5 4.5zM128 320h256v-32h-256v32zM128 224h256v-32h-256v32zM128 128h256v-32h-256v32z" />
<glyph unicode="&#xe09c;" d="M240 480q-99 0 -169.5 -70.5t-70.5 -169.5t70.5 -169.5t169.5 -70.5t169.5 70.5t70.5 169.5t-70.5 169.5t-169.5 70.5zM240 32q-86 0 -147 61t-61 147t61 147t147 61t147 -61t61 -147t-61 -147t-147 -61zM256 285v131h-32v-131q-14 -5 -23 -17.5t-9 -27.5q0 -10 4 -19 t10 -15t15 -10t19 -4q15 0 27.5 9t17.5 23h99v32h-99q-2 7 -6.5 12.5t-10 10t-12.5 6.5z" />
<glyph unicode="&#xe09d;" d="M240 480q-99 0 -169.5 -70.5t-70.5 -169.5t70.5 -169.5t169.5 -70.5t169.5 70.5t70.5 169.5t-70.5 169.5t-169.5 70.5zM384 224h-99q-3 -9 -9.5 -16.5t-16 -11.5t-19.5 -4q-8 0 -15 2.5t-13 7t-10.5 10.5t-7 13t-2.5 15q0 15 9 27.5t23 17.5v131h32v-131q5 -2 9.5 -4.5 t8.5 -6.5t6.5 -8.5t4.5 -9.5h99v-32z" />
<glyph unicode="&#xe09e;" d="M446 332q-2 48 -36.5 82t-82.5 34q-58 0 -94 -45q-20 26 -53 26q-27 0 -47 -20t-20 -47q0 -2 0.5 -3.5t0.5 -3v-3.5q-9 2 -17 2q-40 0 -68.5 -28.5t-28.5 -68.5t28.5 -68.5t68.5 -28.5h50l109 -109l109 109h60q24 0 44 11.5t31.5 32t11.5 43.5q0 31 -19 54.5t-47 30.5z M256 96l-96 96h64v96h64v-96h64z" />
<glyph unicode="&#xe09f;" d="M446 255q2 8 2 17q0 33 -23.5 56.5t-56.5 23.5q-10 0 -21 -3q-9 30 -34 48.5t-57 18.5q-21 0 -40.5 -9t-32.5 -24.5t-19 -35.5q-18 5 -36 5q-53 0 -90.5 -37.5t-37.5 -90.5t37.5 -90.5t90.5 -37.5h304q33 0 56.5 23.5t23.5 56.5q0 29 -19 51.5t-47 27.5zM256 160 l-128 128h64l64 -64l64 64h64z" />
<glyph unicode="&#xe0a0;" d="M446 332q-2 48 -36.5 82t-82.5 34q-58 0 -94 -45q-20 26 -53 26q-27 0 -47 -20t-20 -47q0 -2 0.5 -3.5t0.5 -3v-3.5q-9 2 -17 2q-40 0 -68.5 -28.5t-28.5 -68.5t28.5 -68.5t68.5 -28.5h95v-96h128v96h105q24 0 44 11.5t31.5 32t11.5 43.5q0 31 -19 54.5t-47 30.5z M288 192v-96h-64v96h-64l96 96l96 -96h-64z" />
<glyph unicode="&#xe0a1;" d="M446 255q2 8 2 17q0 33 -23.5 56.5t-56.5 23.5q-10 0 -21 -3q-9 30 -34 48.5t-57 18.5q-21 0 -40.5 -9t-32.5 -24.5t-19 -35.5q-18 5 -36 5q-53 0 -90.5 -37.5t-37.5 -90.5t37.5 -90.5t90.5 -37.5h304q33 0 56.5 23.5t23.5 56.5q0 29 -19 51.5t-47 27.5zM256 288 l128 -128h-64l-64 64l-64 -64h-64z" />
<glyph unicode="&#xe0a2;" d="M446 255q1 4 1.5 8.5t0.5 8.5q0 33 -23.5 56.5t-56.5 23.5q-10 0 -21 -3q-9 30 -34 48.5t-57 18.5t-57.5 -19.5t-34.5 -49.5q-18 5 -36 5q-53 0 -90.5 -37.5t-37.5 -90.5t37.5 -90.5t90.5 -37.5h304q33 0 56.5 23.5t23.5 56.5q0 29 -19 51.5t-47 27.5zM432 128h-304 q-40 0 -68 28t-28 68t28 68t68 28q48 0 77 -38l25 19q-3 5 -7.5 9.5t-9 8.5t-9.5 8t-10 7q3 14 12 25.5t22 18t28 6.5q27 0 45.5 -18.5t18.5 -45.5q0 -13 -5 -25l29 -13q7 17 8 35q8 3 16 3q20 0 34 -14t14 -34q0 -10 -4 -18q-13 -4 -24 -11l17 -27q6 4 13 6t14 2 q20 0 34 -14t14 -34q0 -32 -29 -44q-10 -4 -19 -4z" />
<glyph unicode="&#xe0a3;" d="M446 255q2 8 2 17q0 33 -23.5 56.5t-56.5 23.5q-10 0 -21 -3q-9 30 -34 48.5t-57 18.5q-21 0 -40.5 -9t-32.5 -24.5t-19 -35.5q-18 5 -36 5q-53 0 -90.5 -37.5t-37.5 -90.5t37.5 -90.5t90.5 -37.5h304q33 0 56.5 23.5t23.5 56.5q0 29 -19 51.5t-47 27.5z" />
<glyph unicode="&#xe0a4;" d="M512 183q0 31 -19 54.5t-47 30.5q-2 48 -36.5 82t-82.5 34q-58 0 -94 -45q-20 26 -53 26q-27 0 -47 -20t-20 -47l1 -10q-9 2 -17 2q-13 0 -25.5 -3.5t-23.5 -10t-20 -15.5t-15 -19.5t-9.5 -23t-3.5 -25.5q0 -40 28.5 -68.5t68.5 -28.5h328q24 0 44 11.5t31.5 32 t11.5 43.5z" />
<glyph unicode="&#xe0a5;" d="M393 316q-21 0 -40.5 -8.5t-34.5 -24.5q-11 -12 -36 -27q2 10 7.5 21t11.5 21t13 19t12.5 14.5t10.5 12.5t9 14t7 15t4 16.5t1 17.5q0 43 -29.5 74t-72.5 31q-28 0 -51.5 -14t-37 -38t-13.5 -53q0 -45 32 -75q8 -8 16.5 -20.5t16.5 -27.5t11 -28q-5 3 -10.5 6.5t-10 7 l-9 7t-6.5 6.5q-31 33 -75 33q-43 0 -73.5 -31t-30.5 -74t30.5 -74t73.5 -31q44 0 75 33q6 7 16.5 14.5t22.5 14.5q-1 -35 -12 -66t-26.5 -51.5t-34.5 -31.5v-19h96h96v19q-19 11 -34.5 31.5t-26.5 51.5t-12 66q26 -14 39 -29q10 -10 21.5 -17.5t25.5 -11.5t28 -4 q43 0 73.5 31t30.5 74q0 28 -14 52.5t-37.5 38.5t-52.5 14z" />
<glyph unicode="&#xe0a6;" d="M424 291v7q0 12 -16.5 22t-44.5 17.5t-66.5 12t-81.5 4.5q-56 0 -104 -7.5t-76 -20.5t-28 -28q0 -62 13 -115.5t38 -94.5t65.5 -64.5t91.5 -23.5q120 0 174 118l10 -1q22 0 41.5 7t33.5 19t22.5 28t8.5 34q0 31 -23 55t-58 31zM349 276q-18 -4 -39.5 -7t-45.5 -4.5 t-49 -1.5q-37 0 -71.5 3.5t-61.5 9.5q-17 4 -29.5 8.5t-17.5 8t-8 5.5q11 13 55 23q57 13 133.5 13t133.5 -13q43 -10 54 -23q-11 -12 -54 -22zM398 140q19 50 24 113q11 -2 20 -7t15.5 -12t9.5 -15.5t3 -16.5q0 -16 -7 -29t-24 -22.5t-41 -10.5zM256 386q8 15 4.5 32.5 t-12.5 32.5t-7.5 31.5t19.5 29.5q-31 -2 -41.5 -19t0.5 -32q3 -6 13.5 -18t17 -25.5t6.5 -31.5zM233 357q4 12 -3.5 26.5t-16.5 25t-11.5 26t12.5 28.5q-14 -4 -21.5 -11t-9 -15.5t1 -17t8.5 -14.5q4 -4 13.5 -11t16.5 -15.5t10 -21.5z" />
<glyph unicode="&#xe0a7;" d="M510 221q2 17 2 35q0 6 -0.5 12t-1 11.5t-0.5 11.5l-40 3q-5 31 -19 59l31 26q-17 31 -41 57l-34 -21q-22 21 -49 36l9 39q-31 16 -65 22l-16 -37q-5 0 -10 0.5l-10 1t-10 0.5q-15 0 -30 -2l-16 37q-34 -6 -65 -22l9 -39q-27 -15 -49 -36l-34 21q-24 -26 -41 -57l31 -26 q-14 -28 -19 -59l-40 -3q-2 -17 -2 -35t2 -35l40 -3q5 -31 19 -59l-31 -26q17 -31 41 -57l34 21q11 -11 23.5 -20t25.5 -16l-9 -39q31 -16 65 -22l16 37q7 -1 14.5 -1.5t15.5 -0.5q15 0 30 2l16 -37q34 6 65 22l-9 39q27 15 49 36l34 -21q24 26 41 57l-31 26q14 28 19 59z M256 181q-20 0 -37 10t-27 27.5t-10 37.5q0 31 21.5 53t52.5 22q20 0 37 -10t27 -27.5t10 -37.5q0 -31 -21.5 -53t-52.5 -22z" />
<glyph unicode="&#xe0a8;" d="M467 207q-20 35 -9.5 74t45.5 59l-50 87q-23 -13 -49 -13q-41 0 -69.5 28.5t-28.5 69.5h-100q0 -26 -13 -49q-20 -35 -59.5 -45.5t-74.5 9.5l-50 -87q7 -4 13.5 -9t12.5 -12t10 -14q13 -25 13 -49.5t-13 -47.5t-36 -37l50 -87q23 13 49 13q40 0 68.5 -28.5t28.5 -68.5 h101q0 8 1.5 16.5t4.5 16.5t7 16q20 34 59 44.5t74 -9.5l51 87q-23 13 -36 36zM256 152q-43 0 -73.5 30.5t-30.5 73.5t30.5 73.5t73.5 30.5t73.5 -30.5t30.5 -73.5t-30.5 -73.5t-73.5 -30.5z" />
<glyph unicode="&#xe0a9;" d="M182 151l21 29l-23 23l-29 -21l-17 7l-6 35h-32l-6 -35q-9 -3 -17 -7l-29 21l-23 -23l21 -29l-2 -4l-2 -4t-1.5 -4.5t-1.5 -4.5l-35 -6v-32l35 -6q1 -4 3 -8.5t4 -8.5l-21 -29l23 -23l29 21q3 -1 5.5 -2.5t5.5 -2.5l6 -2l6 -35h32l6 35q9 3 17 7l29 -21l23 23l-21 29 q2 4 4 8.5t3 8.5l35 6v32l-35 6q-3 9 -7 17zM112 80q-13 0 -22.5 9.5t-9.5 22.5t9.5 22.5t22.5 9.5t22.5 -9.5t9.5 -22.5t-9.5 -22.5t-22.5 -9.5zM512 320v32l-34 6q0 3 -0.5 6t-1.5 6l29 19l-13 29l-33 -7q-2 2 -3.5 5t-3.5 5l20 28l-23 23l-28 -20q-5 4 -10 7l7 33l-29 13 l-19 -29q-2 0 -4 0.5l-4 1t-4 0.5l-6 34h-32l-6 -34q-3 0 -6 -0.5t-6 -1.5l-19 29l-29 -13l7 -33q-5 -4 -10 -7l-28 20l-23 -23l20 -28q-4 -6 -7 -10l-33 7l-13 -29l29 -19l-2 -12l-34 -6v-32l34 -6q0 -3 0.5 -6t1.5 -6l-29 -19l13 -29l33 7q2 -2 3.5 -4.5t3.5 -5.5l-20 -28 l23 -23l28 20q6 -4 10 -7l-7 -33l29 -13l19 29q3 -1 6 -1.5t6 -0.5l6 -34h32l6 34q3 0 6 0.5t6 1.5l19 -29l29 13l-7 33q2 2 5 3.5t5 3.5l28 -20l23 23l-20 28q1 1 2 2.5t2 2.5t1.5 2.5t1.5 2.5l33 -7l13 29l-29 19l2 12zM336 266q-29 0 -49.5 20.5t-20.5 49.5t20.5 49.5 t49.5 20.5t49.5 -20.5t20.5 -49.5t-20.5 -49.5t-49.5 -20.5z" />
<glyph unicode="&#xe0aa;" d="M256 256v64h64v32h-64v32h-32v-32h-64v-128h64v-64h-64v-32h64v-32h32v32h64v128h-64zM224 256h-32v64h32v-64zM288 160h-32v64h32v-64zM240 480q-99 0 -169.5 -70.5t-70.5 -169.5t70.5 -169.5t169.5 -70.5t169.5 70.5t70.5 169.5t-70.5 169.5t-169.5 70.5zM240 32 q-86 0 -147 61t-61 147t61 147t147 61t147 -61t61 -147t-61 -147t-147 -61z" />
<glyph unicode="&#xe0ab;" d="M335 353q-8 0 -16.5 -0.5t-17.5 -2.5q0 1 -1 1.5l-1 0.5q2 2 4 3.5l4 3t3.5 3.5t2.5 3.5t2.5 3.5t2 3.5t1 3.5l1 4t0.5 4v32q0 13 -12.5 25t-34 20.5t-51 13.5t-62.5 5q-66 0 -113 -18.5t-47 -45.5v-32q0 -17 21 -32q-21 -15 -21 -32v-32q0 -17 21 -32q-21 -15 -21 -32 v-32q0 -17 21 -32q-21 -15 -21 -32v-32q0 -27 47 -45.5t113 -18.5q35 0 66 6q48 -38 109 -38q74 0 125.5 51.5t51.5 125t-51.5 125t-125.5 51.5zM16 416q0 16 37 30q44 18 107 18t107 -18q37 -14 37 -30q0 -4 -2.5 -7.5t-7.5 -7.5t-12 -8t-15 -7q-14 -6 -30 -10 q-35 -8 -77 -8t-77 8q-5 1 -10.5 2.5t-10.5 3.5t-9 4q-37 14 -37 30zM16 224q0 5 5.5 11t15.5 12q48 -23 123 -23h5q-6 -23 -6 -47v-1q-41 0 -76 8q-8 2 -15.5 4.5t-14.5 5.5q-11 4 -19.5 9.5t-13 10.5t-4.5 10zM160 80q-63 0 -107 18q-37 14 -37 30q0 5 5.5 11t15.5 12 q48 -23 123 -23h5q2 -6 4.5 -12.5t5 -12t5.5 -11.5t7 -11q-14 -1 -27 -1zM160 272q-42 0 -77 8q-8 2 -15.5 4.5t-14.5 5.5q-37 14 -37 30q0 11 21 23q48 -23 123 -23q49 0 89 11q-19 -11 -34.5 -25.5t-27.5 -32.5q-13 -1 -27 -1zM335 32q-39 0 -72.5 19.5t-52.5 52.5 t-19 72.5t19 73t52.5 52.5t72.5 19q60 0 102.5 -42t42.5 -102t-42.5 -102.5t-102.5 -42.5zM352 288h-32v-32h-64v-96h64v-32h-64v-32h64v-32h32v32h64v96h-64v32h64v32h-64v32zM320 192h-32v32h32v-32zM384 160v-32h-32v32h32z" />
<glyph unicode="&#xe0ac;" d="M39 345l192 -64l-64 192l-42 -41l-80 80l-45 -45l80 -80zM432 387l80 80l-45 45l-80 -80l-42 41l-64 -192l192 64zM473 167l-192 64l64 -192l42 41l80 -80l45 45l-80 80zM80 125l-80 -80l45 -45l80 80l42 -41l64 192l-192 -64z" />
<glyph unicode="&#xe0ad;" d="M192 320v192l-192 -192h192zM320 512v-192h192zM320 0l192 192h-192v-192zM192 0v192h-192z" />
<glyph unicode="&#xe0ae;" d="M80 144l-80 -80l64 -64l80 80l80 -80v224h-224zM512 448l-64 64l-80 -80l-80 80v-224h224l-80 80z" />
<glyph unicode="&#xe0af;" d="M258 448q-59 0 -109.5 -18t-82 -46.5t-49 -61.5t-17.5 -63q0 -44 18 -79t49 -57.5t63 -37t70 -23.5q63 -16 89 4.5t25 61.5q-1 21 2.5 34t10 18.5t13.5 7t16 0.5q1 0 12 -1.5t21 -3t25 -2t27.5 0.5t26 5t23 11t15.5 19.5t6 29.5q0 35 -17 70t-48 64.5t-80.5 48 t-108.5 18.5zM80 184q-10 0 -17 7t-7 17t7 17t17 7t17 -7t7 -17t-7 -17t-17 -7zM112 280q-10 0 -17 7t-7 17t7 17t17 7t17 -7t7 -17t-7 -17t-17 -7zM176 368q0 13 9.5 22.5t22.5 9.5t22.5 -9.5t9.5 -22.5t-9.5 -22.5t-22.5 -9.5t-22.5 9.5t-9.5 22.5zM256 183q-9 0 -17.5 2 t-15 5.5t-11.5 8.5t-8 11.5t-3 13.5q0 17 16 28.5t39 11.5q11 0 21 -3t17.5 -8.5t12 -13t4.5 -15.5q0 -17 -16 -29t-39 -12zM352 304q-20 0 -34 14t-14 34t14 34t34 14t34 -14t14 -34t-14 -34t-34 -14z" />
<glyph unicode="&#xe0b0;" d="M480 448h-448q-13 0 -22.5 -9.5t-9.5 -22.5v-224q0 -13 9.5 -22.5t22.5 -9.5h64v-96l72 96h312q13 0 22.5 9.5t9.5 22.5v224q0 13 -9.5 22.5t-22.5 9.5zM480 192h-328l-24 -32v32h-96v224h448v-224zM256 224h32v64h64v32h-64v64h-32v-64h-64v-32h64v-64z" />
<glyph unicode="&#xe0b1;" d="M480 448h-448q-13 0 -22.5 -9.5t-9.5 -22.5v-224q0 -13 9.5 -22.5t22.5 -9.5h64v-96l72 96h312q13 0 22.5 9.5t9.5 22.5v224q0 13 -9.5 22.5t-22.5 9.5zM352 288h-64v-64h-32v64h-64v32h64v64h32v-64h64v-32z" />
<glyph unicode="&#xe0b2;" d="M480 448h-448q-13 0 -22.5 -9.5t-9.5 -22.5v-224q0 -13 9.5 -22.5t22.5 -9.5h64v-96l72 96h312q13 0 22.5 9.5t9.5 22.5v224q0 13 -9.5 22.5t-22.5 9.5zM480 192h-328l-24 -32v32h-96v224h448v-224zM224 224l48 48l48 -48l32 32l-48 48l48 48l-32 32l-48 -48l-48 48 l-32 -32l48 -48l-48 -48z" />
<glyph unicode="&#xe0b3;" d="M480 448h-448q-13 0 -22.5 -9.5t-9.5 -22.5v-224q0 -13 9.5 -22.5t22.5 -9.5h64v-96l72 96h312q13 0 22.5 9.5t9.5 22.5v224q0 13 -9.5 22.5t-22.5 9.5zM352 256l-32 -32l-48 48l-48 -48l-32 32l48 48l-48 48l32 32l48 -48l48 48l32 -32l-48 -48z" />
<glyph unicode="&#xe0b4;" d="M256 504q-106 0 -181 -56.5t-75 -136.5q0 -62 46.5 -111.5t121.5 -70.5q3 -18 3 -27q0 -49 -36 -94q27 11 60 42.5t57 66.5h2h2q106 0 181 57t75 137t-75 136.5t-181 56.5z" />
<glyph unicode="&#xe0b5;" d="M480 448h-448q-13 0 -22.5 -9.5t-9.5 -22.5v-224q0 -13 9.5 -22.5t22.5 -9.5h64v-96l72 96h312q13 0 22.5 9.5t9.5 22.5v224q0 13 -9.5 22.5t-22.5 9.5z" />
<glyph unicode="&#xe0b6;" d="M480 448h-448q-13 0 -22.5 -9.5t-9.5 -22.5v-224q0 -13 9.5 -22.5t22.5 -9.5h64v-96l72 96h312q13 0 22.5 9.5t9.5 22.5v224q0 13 -9.5 22.5t-22.5 9.5zM160 256h-64v64h64v-64zM288 256h-64v64h64v-64zM416 256h-64v64h64v-64z" />
<glyph unicode="&#xe0b7;" d="M480 448h-448q-13 0 -22.5 -9.5t-9.5 -22.5v-224q0 -13 9.5 -22.5t22.5 -9.5h64v-96l72 96h312q13 0 22.5 9.5t9.5 22.5v224q0 13 -9.5 22.5t-22.5 9.5zM480 192h-328l-24 -32v32h-96v224h448v-224zM96 384h320v-32h-320v32zM96 320h256v-32h-256v32zM96 256h192v-32 h-192v32z" />
<glyph unicode="&#xe0b8;" d="M464 512h-416q-20 0 -34 -14t-14 -34v-320q0 -20 14 -34t34 -14h112l96 -96l96 96h112q20 0 34 14t14 34v320q0 20 -14 34t-34 14z" />
<glyph unicode="&#xe0b9;" d="M512 208q0 24 -17.5 43.5t-46.5 28.5q-3 -43 -35.5 -78.5t-84.5 -55.5q10 -5 21 -9t24 -7q9 -21 22.5 -40t30.5 -32q-16 33 -9 71q41 5 68 27t27 52zM416 288q0 53 -56 90.5t-136 37.5t-136 -37.5t-56 -90.5q0 -39 32 -71t84 -47q21 -52 -1 -95q40 30 59 86q9 -1 18 -1 q80 0 136 37.5t56 90.5z" />
<glyph unicode="&#xe0ba;" d="M128 256h224q13 0 22.5 9.5t9.5 22.5v160q0 13 -9.5 22.5t-22.5 9.5h-320q-13 0 -22.5 -9.5t-9.5 -22.5v-160q0 -13 9.5 -22.5t22.5 -9.5h32v-64zM480 320h-64v-64q0 -13 -9.5 -22.5t-22.5 -9.5h-224v-96q0 -13 9.5 -22.5t22.5 -9.5h192l64 -64v64h32q13 0 22.5 9.5 t9.5 22.5v160q0 13 -9.5 22.5t-22.5 9.5z" />
<glyph unicode="&#xe0bb;" d="M464 384h-288q-20 0 -34 -14t-14 -34v-224q0 -20 14 -34t34 -14h80l64 -64l64 64h80q20 0 34 14t14 34v224q0 20 -14 34t-34 14zM384 464q0 20 -14 34t-34 14h-288q-20 0 -34 -14t-14 -34v-224q0 -20 14 -34t34 -14h16v208q0 20 14 34t34 14h272v16z" />
<glyph unicode="&#xe0bc;" d="M256 512q-106 0 -181 -75t-75 -181t75 -181t181 -75t181 75t75 181t-75 181t-181 75zM256 32q-93 0 -158.5 65.5t-65.5 158.5l171 -28l-75 -100l100 75l28 -171l28 171l100 -75l-75 100l171 28l-171 28l75 100l-100 -75l-28 171l-28 -171l-100 75l75 -100l-171 -28 q0 93 65.5 158.5t158.5 65.5t158.5 -65.5t65.5 -158.5t-65.5 -158.5t-158.5 -65.5z" />
<glyph unicode="&#xe0bd;" d="M256 512q-106 0 -181 -75t-75 -181t75 -181t181 -75t181 75t75 181t-75 181t-181 75zM256 32q-93 0 -158.5 65.5t-65.5 158.5t65.5 158.5t158.5 65.5t158.5 -65.5t65.5 -158.5t-65.5 -158.5t-158.5 -65.5zM128 128l169 79l87 177l-173 -83zM256 288q13 0 22.5 -9.5 t9.5 -22.5t-9.5 -22.5t-22.5 -9.5t-22.5 9.5t-9.5 22.5t9.5 22.5t22.5 9.5z" />
<glyph unicode="&#xe0be;" d="M448 64l-134 418q-4 12 -14 21t-20 9h-48q-10 0 -20 -9t-14 -21l-134 -418h-64v-64h512v64h-64zM211 416h90l21 -64h-132zM170 288h172l21 -64h-214zM108 96l20 64h256l20 -64h-296z" />
<glyph unicode="&#xe0bf;" d="M512 304v128q0 7 -4.5 11.5t-11.5 4.5h-480q-7 0 -11.5 -4.5t-4.5 -11.5v-128q0 -7 4.5 -11.5t11.5 -4.5h60l-76 -224h96l33 96h254l33 -96h96l-76 224h60q7 0 11.5 4.5t4.5 11.5zM416 416l-96 -96h-96l96 96h96zM128 416h96l-96 -96h-96zM372 192h-232l32 96h168z M480 320h-64l64 64v-64z" />
<glyph unicode="&#xe0c0;" d="M256 512q-106 0 -181 -75t-75 -181t75 -181t181 -75t181 75t75 181t-75 181t-181 75zM32 256q0 93 65.5 158.5t158.5 65.5v-448q-93 0 -158.5 65.5t-65.5 158.5z" />
<glyph unicode="&#xe0c1;" d="M240 416q-60 0 -102 -42t-42 -102t42 -102t102 -42t102 42t42 102t-42 102t-102 42zM319 193q-10 -11 -23 -18t-27 -11t-29 -4v224q46 0 79 -33t33 -79q0 -22 -8.5 -42.5t-24.5 -36.5zM224 512h32v-64h-32v64zM224 96h32v-64h-32v64zM0 288h64v-32h-64v32zM416 288h64 v-32h-64v32zM48 487l75 -76l-22 -22l-76 75zM379 155l76 -75l-23 -23l-75 76zM25 80l76 75l22 -22l-75 -76zM357 411l75 76l23 -23l-76 -75z" />
<glyph unicode="&#xe0c2;" d="M448 384h-128v64l-64 64h-256v-384h192v-128h320v320zM32 160v320h192l64 -64v-32h-96v-224h-160zM480 32h-256v320h192l64 -64v-256z" />
<glyph unicode="&#xe0c3;" d="M224 320h192v-32h-192v32zM224 256h192v-32h-192v32zM224 192h192v-32h-192v32zM224 128h128v-32h-128v32zM480 416h-96v64q0 13 -9.5 22.5t-22.5 9.5h-320q-13 0 -22.5 -9.5t-9.5 -22.5v-352q0 -13 9.5 -22.5t22.5 -9.5h96v-64q0 -13 9.5 -22.5t22.5 -9.5h320 q13 0 22.5 9.5t9.5 22.5v352q0 13 -9.5 22.5t-22.5 9.5zM128 384v-240h-80v320h288v-48h-176q-13 0 -22.5 -9.5t-9.5 -22.5zM464 48h-288v320h288v-320z" />
<glyph unicode="&#xe0c4;" d="M416 384l96 96l-32 32l-96 -96h-224v96h-64v-96h-96v-64h96v-256h256v-96h64v96h96v64h-96v224zM160 352h160l-160 -160v160zM192 160l160 160v-160h-160z" />
<glyph unicode="&#xe0c5;" d="M128 128h256v-64h-256v64zM480 416q-13 0 -22.5 -9.5t-9.5 -22.5q0 -10 5 -18l-117 -78l-12 96q12 2 20 11t8 21q0 13 -9.5 22.5t-22.5 9.5t-22.5 -9.5t-9.5 -22.5q0 -3 0.5 -6t1.5 -6t2.5 -5.5t3.5 -4.5t4.5 -3.5t5.5 -3.5l-50 -99l-50 99q8 4 13 12t5 17 q0 13 -9.5 22.5t-22.5 9.5t-22.5 -9.5t-9.5 -22.5q0 -8 3.5 -15t10 -11.5t14.5 -5.5l-12 -96l-117 78q5 8 5 18q0 13 -9.5 22.5t-22.5 9.5t-22.5 -9.5t-9.5 -22.5t9.5 -22.5t22.5 -9.5q2 0 4.5 0.5t4.5 1t4 1.5l83 -195h256l83 195q2 -1 4 -1.5t4.5 -1t4.5 -0.5q9 0 16 4.5 t11.5 11.5t4.5 16q0 13 -9.5 22.5t-22.5 9.5z" />
<glyph unicode="&#xe0c6;" d="M76 488l-17 -86h350l-11 -56h-350l-17 -86h350l-20 -98l-141 -46l-122 46l8 43h-86l-20 -103l202 -78l233 78l77 386h-436z" />
<glyph unicode="&#xe0c7;" d="M256 480l-224 -96l224 -96l224 96zM32 96l192 -80v224l-192 80v-224zM288 16l192 80v224l-192 -80v-224z" />
<glyph unicode="&#xe0c8;" d="M240 480l-240 -96v-224l240 -128l240 128v224zM224 77l-192 102v156l192 -102v-156zM41 366l199 80l199 -80l-199 -106zM448 179l-192 -102v156l192 102v-156z" />
<glyph unicode="&#xe0c9;" d="M512 480h-160v-64h-192v64h-160q0 -116 74.5 -234.5t149.5 -141.5v-40q-24 0 -44 -10t-20 -22h192q0 12 -20 22t-44 10v40q75 23 149.5 141.5t74.5 234.5zM384 399v17v32h94q-4 -39 -18 -81q-19 -58 -51 -112l-22 -32t-22.5 -29.5t-23.5 -24.5l-7 -7q47 94 50 237z M171 169q-36 35 -68 86q-32 54 -51 112q-14 42 -18 81h94v-32v-17q3 -143 50 -237l-3.5 3.5z" />
<glyph unicode="&#xe0ca;" d="M415 448q1 19 1 32h-160h-160q0 -13 1 -32h-97q0 -45 38.5 -89.5t90.5 -70.5q36 -101 95 -122v-38h-64v-64h96h96v64h-64v38q59 21 95 122q33 17 62 41.5t48 56t19 62.5h-97zM58 372q-21 25 -26 44h69q6 -51 18 -95q-36 22 -61 51zM454 372q-13 -14 -28.5 -27t-32.5 -24 q6 23 10.5 47.5t7.5 47.5h69q-5 -19 -26 -44z" />
<glyph unicode="&#xe0cb;" d="M261 33q-6 8 -9 11q0 13 1 34t1.5 61.5t0.5 53.5q0 11 4 19.5t10 15.5t19.5 24t27.5 35q19 28 21.5 79.5t-2.5 84t-12 61.5h-83h-83q-3 -15 -6.5 -31.5t-6.5 -45t-3 -53.5t5.5 -51.5t17.5 -43.5q14 -18 27.5 -35t19.5 -24t10 -15.5t4 -19.5q0 -13 0.5 -53.5t1.5 -61.5 t1 -34l-9 -11q-67 -8 -72 -16v-6q15 -11 93 -11v0v0q35 0 58 3t29 5l6 3v6q-3 3 -20.5 7t-34.5 7z" />
<glyph unicode="&#xe0cc;" d="M256 512q-106 0 -181 -75t-75 -181t75 -181t181 -75t181 75t75 181t-75 181t-181 75zM30 224h50q20 0 34 -14t14 -34v-109q-40 27 -65.5 68t-32.5 89zM160 49v127q0 33 -23.5 56.5t-56.5 23.5h-52q0 70 39 128h61v61q44 30 96 37v-34h64v34q52 -7 96 -37v-61h61 q39 -58 39 -128h-52q-33 0 -56.5 -23.5t-23.5 -56.5v-127q-22 -11 -46.5 -16t-49.5 -5q-51 0 -96 21zM384 67v109q0 20 14 34t34 14h50q-7 -48 -32.5 -89t-65.5 -68zM284 204l-16 180h-24l-16 -180q-11 -7 -17.5 -18.5t-6.5 -25.5q0 -9 2.5 -16.5t7.5 -14t11.5 -11.5 t14 -7.5t16.5 -2.5q22 0 37 15t15 37q0 29 -24 44z" />
<glyph unicode="&#xe0cd;" d="M256 512q-106 0 -181 -75t-75 -181t75 -181t181 -75t181 75t75 181t-75 181t-181 75zM256 64q-80 0 -136 56t-56 136t56 136t136 56t136 -56t56 -136t-56 -136t-136 -56zM224 384q0 13 9.5 22.5t22.5 9.5t22.5 -9.5t9.5 -22.5t-9.5 -22.5t-22.5 -9.5t-22.5 9.5t-9.5 22.5 zM320 352q0 13 9.5 22.5t22.5 9.5t22.5 -9.5t9.5 -22.5t-9.5 -22.5t-22.5 -9.5t-22.5 9.5t-9.5 22.5zM128 352q0 13 9.5 22.5t22.5 9.5t22.5 -9.5t9.5 -22.5t-9.5 -22.5t-22.5 -9.5t-22.5 9.5t-9.5 22.5zM224 160v-32h64v32l-32 160z" />
<glyph unicode="&#xe0ce;" d="M256 512q-106 0 -181 -23.5t-75 -56.5v-64q0 -33 75 -56.5t181 -23.5t181 23.5t75 56.5v64q0 33 -75 56.5t-181 23.5zM255 256q-85 0 -152 15.5t-92 40.5q-11 -11 -11 -24v-64q0 -33 75 -56.5t181 -23.5t181 23.5t75 56.5v64q0 12 -12 24q-25 -25 -92.5 -40.5 t-152.5 -15.5zM255 112q-85 0 -152 15.5t-92 40.5q-11 -11 -11 -24v-64q0 -33 75 -56.5t181 -23.5t181 23.5t75 56.5v64q0 12 -12 24q-25 -25 -92.5 -40.5t-152.5 -15.5z" />
<glyph unicode="&#xe0cf;" d="M427 512h-342q-35 0 -60 -25t-25 -60v-342q0 -35 25 -60t60 -25h342q35 0 60 25t25 60v342q0 35 -25 60t-60 25zM480 85q0 -22 -16 -37q-7 -8 -17 -12t-20 -4h-171v224h-224v171q0 3 0.5 6.5t1.5 7t2 6.5t3 6l4 6t5 5q15 16 37 16h171v-224h224v-171z" />
<glyph unicode="&#xe0d0;" d="M281 308q-31 2 -68 -4l60 -108l239 65q-4 9 -11 18q-13 14 -34 27t-47.5 23t-55.5 16q-80 19 -183 3q-3 0 -7 -1l-21 39q-10 -1 -20 -3t-19.5 -4.5t-18.5 -5.5l20 -42q-49 -19 -79 -52q-53 -60 -29 -128q0 -2 1.5 -5t2.5 -5.5t2.5 -5t2.5 -5t3 -4.5l239 65l-66 123 q4 1 7 2q131 23 198 -42l-82 -20zM87 199q-14 64 46 96l36 -76z" />
<glyph unicode="&#xe0d1;" d="M118 209l67 16l-30 63q-27 -14 -35 -34.5t-2 -44.5zM427 512h-342q-35 0 -60 -25t-25 -60v-342q0 -35 25 -60t60 -25h342q35 0 60 25t25 60v342q0 35 -25 60t-60 25zM270 206l-49 89q30 6 55 4l28 -45l68 17q-55 53 -163 34q-2 0 -6 -1l55 -101l-197 -54q-6 10 -10 21 q-19 55 24 105q25 27 65 43l-16 34q22 7 47 11l18 -32l5 1q85 12 151 -3q36 -7 66.5 -21.5t45.5 -32.5q6 -7 9 -15z" />
<glyph unicode="&#xe0d2;" d="M64 448l-64 -64h128zM256 384l-64 64l-64 -64h128zM256 384h128l-64 64zM512 384l-64 64l-64 -64h128zM320 448h128l-32 32h-320l-32 -32h128h128zM256 32l-144 288h86l58 -288l58 288h86l-144 -288l256 320h-512z" />
<glyph unicode="&#xe0d3;" d="M256 512l-160 -256l160 -256l160 256z" />
<glyph unicode="&#xe0d4;" d="M432 416h-256q-33 0 -56.5 -23.5t-23.5 -56.5v-256q0 -33 23.5 -56.5t56.5 -23.5h256q33 0 56.5 23.5t23.5 56.5v256q0 33 -23.5 56.5t-56.5 23.5zM176 32q-20 0 -34 14t-14 34t14 34t34 14t34 -14t14 -34t-14 -34t-34 -14zM176 288q-20 0 -34 14t-14 34t14 34t34 14 t34 -14t14 -34t-14 -34t-34 -14zM304 160q-20 0 -34 14t-14 34t14 34t34 14t34 -14t14 -34t-14 -34t-34 -14zM432 32q-20 0 -34 14t-14 34t14 34t34 14t34 -14t14 -34t-14 -34t-34 -14zM432 288q-20 0 -34 14t-14 34t14 34t34 14t34 -14t14 -34t-14 -34t-34 -14zM414 448 q-5 28 -27 46t-51 18h-256q-33 0 -56.5 -23.5t-23.5 -56.5v-256q0 -29 18 -51t46 -27v318q0 13 9.5 22.5t22.5 9.5h318z" />
<glyph unicode="&#xe0d5;" d="M448 512h-448v-512h512v448zM256 448h64v-128h-64v128zM448 64h-384v384h32v-160h288v160h37l27 -27v-357z" />
<glyph unicode="&#xe0d6;" d="M448 160v-64h-384v64h-64v-128h512v128h-64zM384 320h-96v160h-64v-160h-96l128 -192z" />
<glyph unicode="&#xe0d7;" d="M96 0h320q40 0 68 28t28 68h-512q0 -40 28 -68t68 -28zM416 64h32v-32h-32v32zM352 416h-64v96h-64v-96h-64l96 -96zM480 384h-96l-96 -96h-64l-96 96h-96l-32 -256h512z" />
<glyph unicode="&#xe0d8;" d="M448 256h-64l-128 -128l-128 128h-64l-64 -128v-32h512v32zM0 64h512v-32h-512v32zM288 320v160h-64v-160h-96l128 -128l128 128h-96z" />
<glyph unicode="&#xe0d9;" d="M352 416h-192l-160 -192v-80v-48q0 -13 9.5 -22.5t22.5 -9.5h448q13 0 22.5 9.5t9.5 22.5v48v80zM384 224l-64 -64h-128l-64 64h-86l133 160h162l133 -160h-86z" />
<glyph unicode="&#xe0da;" d="M352 416h-192l-160 -192v-128q0 -13 9.5 -22.5t22.5 -9.5h448q13 0 22.5 9.5t9.5 22.5v128zM320 160h-128l-32 32h192zM42 224l133 160h162l133 -160h-428zM142 320h228l-27 32h-174zM89 256h334l-27 32h-280z" />
<glyph unicode="&#xe0db;" d="M256 0q-106 0 -181 75t-75 181t75 181t181 75t181 -75t75 -181t-75 -181t-181 -75zM466 229q-76 10 -135 1q25 -70 41 -150q38 25 63 64t31 85zM332 59q-8 44 -18.5 84.5t-23.5 77.5q-98 -29 -164 -132q58 -44 130 -44q39 0 76 14zM45 256q0 -78 50 -137q74 108 180 139 q-9 21 -17 37q-83 -25 -213 -31v-3v-5zM49 300q114 5 192 29q-33 58 -80 115q-28 -14 -51 -35.5t-38.5 -49t-22.5 -59.5zM256 467q-26 0 -54 -7q44 -48 80 -117q13 6 24.5 11.5t23 12.5t22.5 14.5t21.5 16t20.5 18.5q-60 51 -138 51zM420 390q-51 -52 -121 -80q9 -19 18 -43 q61 9 150 0q-4 70 -47 123z" />
<glyph unicode="&#xe0dc;" d="M152 123q46 -36 104 -36q31 0 61 11q-12 71 -34 130q-78 -24 -131 -105zM271 257q-7 18 -13 30q-67 -19 -171 -24v-3v-4q0 -62 40 -110q59 87 144 111zM366 384q-47 41 -110 41q-11 0 -21.5 -1.5t-21.5 -4.5q35 -38 64 -93q52 21 89 58zM180 407q-34 -17 -57.5 -47.5 t-31.5 -67.5q91 4 153 22q-26 47 -64 93zM316 235q20 -56 33 -120q65 43 75 120q-61 7 -108 0zM427 512h-342q-35 0 -60 -25t-25 -60v-342q0 -35 25 -60t60 -25h342q35 0 60 25t25 60v342q0 35 -25 60t-60 25zM256 51q-85 0 -145 60t-60 145q0 56 27.5 103t74.5 74.5 t103 27.5q85 0 145 -60t60 -145q0 -94 -72 -156q-58 -48 -133 -49zM290 299q7 -15 15 -34q49 7 120 0q-2 27 -11.5 52t-26.5 46q-11 -10 -22 -19.5t-23 -17.5t-25 -14.5t-27 -12.5z" />
<glyph unicode="&#xe0dd;" d="M448 195v1v1.5v0.5q-2 45 -22 93.5t-48 86t-56 69t-46.5 48.5t-19.5 17q-21 -17 -52 -47.5t-84.5 -113t-55.5 -153.5v-2v-1v-1.5v-1.5v-4q2 -78 58 -133t134 -55q39 0 74 15t60.5 40t41 60t16.5 73v4v3zM384 190v-1q-1 -52 -38.5 -88.5t-89.5 -36.5q-5 0 -9.5 0.5 t-8.5 0.5q53 32 84.5 86t31.5 118q0 15 -2 29q30 -56 32 -102v-1v-1v-2v-2z" />
<glyph unicode="&#xe0de;" d="M160 384l-128 -128l128 -128h64l-128 128l128 128h-64zM352 384h-64l128 -128l-128 -128h64l128 128z" />
<glyph unicode="&#xe0df;" d="M448 480h-352q-13 0 -22.5 -9.5t-9.5 -22.5v-128h64v96h352v32q0 13 -9.5 22.5t-22.5 9.5zM336 240l-144 144v-96h-192v-96h192v-96zM128 160h-64v-128q0 -13 9.5 -22.5t22.5 -9.5h352q13 0 22.5 9.5t9.5 22.5v32h-352v96z" />
<glyph unicode="&#xe0e0;" d="M512 480h-96v-224h-240l80 80l-64 64l-192 -192l192 -192l64 64l-80 80h336v320z" />
<glyph unicode="&#xe0e1;" d="M512 480h-96v-224h-192l64 128l-288 -176l288 -176l-64 128h288v320z" />
<glyph unicode="&#xe0e2;" d="M144 352h-64q-7 0 -11.5 -4.5t-4.5 -11.5v-32q0 -7 4.5 -11.5t11.5 -4.5h64q7 0 11.5 4.5t4.5 11.5v32q0 7 -4.5 11.5t-11.5 4.5zM96 448h32v-80h-32v80zM96 272h32v-208h-32v208zM272 224h-64q-7 0 -11.5 -4.5t-4.5 -11.5v-32q0 -7 4.5 -11.5t11.5 -4.5h64q7 0 11.5 4.5 t4.5 11.5v32q0 7 -4.5 11.5t-11.5 4.5zM224 448h32v-208h-32v208zM224 144h32v-80h-32v80zM400 320h-64q-7 0 -11.5 -4.5t-4.5 -11.5v-32q0 -7 4.5 -11.5t11.5 -4.5h64q7 0 11.5 4.5t4.5 11.5v32q0 7 -4.5 11.5t-11.5 4.5zM352 448h32v-112h-32v112zM352 240h32v-176h-32 v176zM440 512h-400q-17 0 -28.5 -11.5t-11.5 -28.5v-432q0 -17 11.5 -28.5t28.5 -11.5h400q17 0 28.5 11.5t11.5 28.5v432q0 17 -11.5 28.5t-28.5 11.5zM448 40q0 -8 -8 -8h-400q-8 0 -8 8v432q0 8 8 8h400q8 0 8 -8v-432z" />
<glyph unicode="&#xe0e3;" d="M480 480h-448q-13 0 -22.5 -9.5t-9.5 -22.5v-384q0 -13 9.5 -22.5t22.5 -9.5h448q13 0 22.5 9.5t9.5 22.5v384q0 13 -9.5 22.5t-22.5 9.5zM480 64h-448v384h448v-384zM216 160h-24v256h-64v-256h-24q-8 0 -8 -8v-48q0 -8 8 -8h112q8 0 8 8v48q0 8 -8 8zM296 352h24v-256 h64v256h24q8 0 8 8v48q0 8 -8 8h-112q-8 0 -8 -8v-48q0 -8 8 -8z" />
<glyph unicode="&#xe0e4;" d="M384 512h-256l-128 -128v-224l128 -160h256l128 128v256zM400 176l-64 -64l-80 80l-80 -80l-64 64l80 80l-80 80l64 64l80 -80l80 80l64 -64l-80 -80z" />
<glyph unicode="&#xe0e5;" d="M496 240l-144 144v-96h-192v-96h192v-96zM416 416v32q0 13 -9.5 22.5t-22.5 9.5h-352q-13 0 -22.5 -9.5t-9.5 -22.5v-416q0 -13 9.5 -22.5t22.5 -9.5h352q13 0 22.5 9.5t9.5 22.5v32h-352v352h352z" />
<glyph unicode="&#xe0e6;" d="M256 480v-224v-224h256v448h-256zM480 64h-192l128 128v224l-128 32h192v-384zM128 288h-128v-64h128v-64l128 96l-128 96v-64z" />
<glyph unicode="&#xe0e7;" d="M105 361l80 -80l46 46l-80 80l41 41l-192 64l64 -192zM327 281l80 80l41 -41l64 192l-192 -64l41 -41l-80 -80zM407 151l-80 80l-46 -46l80 -80l-41 -41l192 -64l-64 192zM185 231l-80 -80l-41 41l-64 -192l192 64l-41 41l80 80z" />
<glyph unicode="&#xe0e8;" d="M0 320l192 192h-192v-192zM320 512l192 -192v192h-192zM512 0v192l-192 -192h192zM0 0h192l-192 192v-192z" />
<glyph unicode="&#xe0e9;" d="M176 240l-96 -96l-80 80v-224h224l-80 80l96 96zM288 512l80 -80l-96 -96l64 -64l96 96l80 -80v224h-224z" />
<glyph unicode="&#xe0ea;" d="M256 400q-59 0 -121.5 -29.5t-98.5 -63.5t-36 -51t36 -51t98.5 -63.5t121.5 -29.5t121.5 29.5t98.5 63.5t36 51t-36 51t-98.5 63.5t-121.5 29.5zM256 160q-40 0 -68 28t-28 68t28 68t68 28t68 -28t28 -68t-28 -68t-68 -28zM224 256q0 13 9.5 22.5t22.5 9.5t22.5 -9.5 t9.5 -22.5t-9.5 -22.5t-22.5 -9.5t-22.5 9.5t-9.5 22.5z" />
<glyph unicode="&#xe0eb;" d="M256 416q-82 0 -151 -44t-105 -116q36 -72 105 -116t151 -44t151 44t105 116q-36 72 -105 116t-151 44zM256 210q-19 0 -32.5 13.5t-13.5 32.5q0 6 1.5 12t4.5 11t7.5 9.5t9.5 7.5t11 4.5t12 1.5q19 0 32.5 -13.5t13.5 -32.5q0 -13 -6 -23.5t-16.5 -16.5t-23.5 -6z M121 167q-53 34 -85 89q32 55 85 89q30 19 64 29q16 5 34 7q-41 -12 -67.5 -46.5t-26.5 -78.5q0 -29 12.5 -55t33.5 -44t48 -26q-18 2 -34 7q-4 2 -8.5 3t-8.5 2.5t-8 3.5t-8 3.5t-8 3.5t-8 4.5t-7.5 4.5t-7.5 4zM391 167q-30 -19 -64 -29q-8 -2 -16.5 -4t-17.5 -3 q41 12 67.5 46.5t26.5 78.5q0 29 -12.5 55t-33.5 44t-48 26q9 -1 17.5 -3t16.5 -4q34 -10 64 -29q53 -34 85 -89q-32 -55 -85 -89z" />
<glyph unicode="&#xe0ec;" d="M256 352q-77 0 -144 -34.5t-112 -93.5q45 -59 112 -93.5t144 -34.5t144 34.5t112 93.5q-45 59 -112 93.5t-144 34.5zM224 288q13 0 22.5 -9.5t9.5 -22.5t-9.5 -22.5t-22.5 -9.5t-22.5 9.5t-9.5 22.5t9.5 22.5t22.5 9.5zM387 159q-30 -15 -63 -23t-68 -8q-17 0 -34.5 2 t-33.5 6q-33 8 -63 23q-48 25 -84 65q36 40 84 65q24 12 51 20q-16 -24 -16 -53q0 -40 28 -68t68 -28t68 28t28 68q0 14 -4 27.5t-12 25.5q13 -4 26 -9t25 -11q48 -25 84 -65q-18 -20 -39.5 -36.5t-44.5 -28.5zM430 390q-81 42 -174 42t-174 -42q-45 -22 -82 -56v-45 q42 45 96 73q37 19 77.5 28.5t82.5 9.5q21 0 41.5 -2.5t40.5 -7t39.5 -12t38.5 -16.5q54 -28 96 -73v45q-37 34 -82 56z" />
<glyph unicode="&#xe0ed;" d="M491 491q-20 20 -38.5 21.5t-34 -12.5t-27.5 -31t-24 -37t-19 -26q-2 -2 -4 -4.5t-4 -4t-4 -4t-4 -3.5l-30 30q-12 11 -23 0l-30 -30q-2 -2 -3 -4.5t-1.5 -4.5t0 -4.5t1.5 -5t3 -4.5l30 -30l-188 -189q-17 -16 -46.5 -62.5t-44.5 -61.5l12 -12l12 -12q15 15 61.5 44.5 t62.5 46.5l189 188l30 -30q11 -11 23 0l30 30q11 11 0 23l-30 30q2 3 8 8l8 8q6 7 26 19t37 24t31 27.5t12.5 34t-21.5 38.5zM139 100q-15 -16 -62 -46q-38 -24 -52 -36l-4 3l-3 4q12 14 36 52q30 47 46 62l188 189l40 -40z" />
<glyph unicode="&#xe0ee;" d="M309 414h79v98h-79q-49 0 -83.5 -37.5t-34.5 -90.5v-49h-79v-98h79v-237h98v237h99v98h-99v50q0 12 6.5 20.5t13.5 8.5z" />
<glyph unicode="&#xe0ef;" d="M427 512h-342q-35 0 -60 -25t-25 -60v-342q0 -35 25 -60t60 -25h171v192h-64v80h64v40q0 43 28 73.5t68 30.5h64v-79h-64q-6 0 -11 -7t-5 -17v-41h80v-80h-80v-192h91q35 0 60 25t25 60v342q0 35 -25 60t-60 25z" />
<glyph unicode="&#xe0f0;" d="M480 64v288l-128 -96v96l-128 -96v128l-128 -96v192h-64v-416h-32v-32h512v32h-32z" />
<glyph unicode="&#xe0f1;" d="M460 260q-18 18 -41 30.5t-48 17.5l103 102q43 44 -7 77q-21 12 -43.5 18.5t-45 6.5t-45 -5.5t-43.5 -17t-38 -29.5q-12 -12 -22 -26.5t-16 -30t-10 -32.5l-102 103q-44 43 -77 -7q-20 -34 -24 -72.5t9 -76t42 -66.5q18 -18 41 -30.5t48 -17.5l-103 -102q-43 -44 7 -77 q51 -31 111.5 -24t103.5 51q18 18 30.5 41t17.5 48l102 -103q44 -43 77 7q31 51 24 111.5t-51 103.5zM256 192q-27 0 -45.5 18.5t-18.5 45.5t18.5 45.5t45.5 18.5t45.5 -18.5t18.5 -45.5t-18.5 -45.5t-45.5 -18.5z" />
<glyph unicode="&#xe0f2;" d="M309 464q-8 -29 -4 -44q-8 9 -10 36q-37 -23 -71 -53q-6 -5 -11.5 -10.5l-10.5 -10.5t-9.5 -10l-9 -10t-8.5 -10.5t-8 -10.5t-7.5 -10t-6.5 -10t-6 -9q0 -5 0.5 -15t1 -18.5t2.5 -16.5q-10 10 -16 28q-32 -66 -28 -140q109 208 290 327q-6 -5 -18 -17q-53 -51 -86 -85.5 t-85 -103t-86 -136.5q20 -2 56 13t71 42q-10 1 -19.5 2.5t-14.5 2.5q25 1 45 5q56 48 75 108q-32 -18 -61 -25q11 4 21.5 10.5t17 13t15 14t13.5 11.5q8 35 23.5 66t31.5 51t31 35t25 21l9 7q-7 0 -20.5 -1.5t-53.5 -13.5t-78 -33zM118 135q33 65 81.5 130.5t83 102 t82.5 83.5q-142 -105 -236 -268q-6 -10 -11.5 -19.5t-10.5 -19.5q-38 -4 -56 -41q3 3 7.5 5.5t9.5 4.5l10 4t9.5 2.5t7.5 0.5q-27 -56 -40 -98q1 -8 11 -22q15 55 40 109q1 -5 6.5 -11t6.5 -18q5 16 4.5 28t-4.5 25q0 1 -1 2z" />
<glyph unicode="&#xe0f3;" d="M68 137q-28 0 -48 -20t-20 -48.5t20 -48t48 -19.5t48 19.5t20 47.5q0 12 -3 22t-9.5 18.5t-15 15t-19 10t-21.5 3.5zM0 338v-98q99 0 169 -70t70 -170h99q0 92 -45.5 169.5t-123 123t-169.5 45.5zM0 512v-98q84 0 160.5 -33t132 -88.5t88.5 -132t33 -160.5h98 q0 104 -40.5 199t-109 163.5t-163.5 109t-199 40.5z" />
<glyph unicode="&#xe0f4;" d="M427 512h-342q-35 0 -60 -25t-25 -60v-342q0 -35 25 -60t60 -25h342q35 0 60 25t25 60v342q0 35 -25 60t-60 25zM139.5 96q-18.5 0 -31 13t-12.5 31t13 30.5t31 12.5t30.5 -12.5t12.5 -30.5t-12.5 -31t-31 -13zM249 96q0 64 -45 108.5t-108 44.5v63q89 0 152.5 -63.5 t63.5 -152.5h-63zM360 96q0 109 -77.5 186.5t-186.5 77.5v63q89 0 164 -44t119 -119t44 -164h-63z" />
<glyph unicode="&#xe0f5;" d="M288 195q27 6 50.5 20.5t40.5 35t27 46.5t10 55q0 66 -47 113t-113 47t-113 -47t-47 -113q0 -58 36.5 -102t91.5 -55v-67h-96v-64h96v-64h64v64h96v64h-96v67zM150 352q0 44 31 75t75 31t75 -31t31 -75q0 -21 -8.5 -41t-22.5 -34t-34 -22.5t-41 -8.5q-44 0 -75 31t-31 75 z" />
<glyph unicode="&#xe0f6;" d="M450 407l-75 87q-16 18 -39 18h-256q-13 0 -22.5 -9.5t-9.5 -22.5v-448q0 -13 9.5 -22.5t22.5 -9.5h352q13 0 22.5 9.5t9.5 22.5v336q0 22 -14 39zM352 492l10 -8l76 -88q4 -4 6 -12h-92v108zM448 32q0 -7 -4.5 -11.5t-11.5 -4.5h-352q-7 0 -11.5 4.5t-4.5 11.5v448 q0 7 4.5 11.5t11.5 4.5h256v-128h112v-336zM192 224v64q0 4 1 8t3 8t5 7q5 4 11 6.5t12 2.5v32q-26 0 -45 -19t-19 -45v-48q0 -7 -4.5 -11.5t-11.5 -4.5h-16v-32h16q7 0 11.5 -4.5t4.5 -11.5v-48q0 -26 19 -45t45 -19v32q-13 0 -22.5 9.5t-9.5 22.5v64q0 7 -4.5 11.5 t-11.5 4.5q7 0 11.5 4.5t4.5 11.5zM320 192v-64q0 -13 -9.5 -22.5t-22.5 -9.5v-32q26 0 45 19t19 45v48q0 7 4.5 11.5t11.5 4.5h16v32h-16q-7 0 -11.5 4.5t-4.5 11.5v48q0 26 -19 45t-45 19v-32q13 0 22.5 -9.5t9.5 -22.5v-64q0 -7 4.5 -11.5t11.5 -4.5q-7 0 -11.5 -4.5 t-4.5 -11.5z" />
<glyph unicode="&#xe0f7;" d="M450 407l-75 87q-16 18 -39 18h-256q-13 0 -22.5 -9.5t-9.5 -22.5v-448q0 -13 9.5 -22.5t22.5 -9.5h352q13 0 22.5 9.5t9.5 22.5v336q0 22 -14 39zM352 492l10 -8l76 -88q4 -4 6 -12h-92v108zM448 32q0 -7 -4.5 -11.5t-11.5 -4.5h-352q-7 0 -11.5 4.5t-4.5 11.5v448 q0 7 4.5 11.5t11.5 4.5h256v-128h112v-336zM372 320h-68l-48 -71l-48 71h-68l82 -121l-92 -135h131v46h-30l25 37l56 -83h70l-92 135z" />
<glyph unicode="&#xe0f8;" d="M450 407l-75 87q-16 18 -39 18h-256q-13 0 -22.5 -9.5t-9.5 -22.5v-448q0 -13 9.5 -22.5t22.5 -9.5h352q13 0 22.5 9.5t9.5 22.5v336q0 22 -14 39zM352 492l10 -8l76 -88q4 -4 6 -12h-92v108zM448 32q0 -7 -4.5 -11.5t-11.5 -4.5h-352q-7 0 -11.5 4.5t-4.5 11.5v448 q0 7 4.5 11.5t11.5 4.5h256v-128h112v-336zM345 276q-22 12 -49.5 12t-47.5 -15q64 6 97 -28q31 35 97 29q-23 14 -48 14t-49 -12zM333 209q-17 1 -34 -3t-32 -10.5t-30 -16.5q-39 18 -86 13t-81 -32q8 0 22.5 2.5t16.5 2.5q82 8 135 -40q22 33 59 50q34 16 102 17 q-15 10 -33 13.5t-39 3.5z" />
<glyph unicode="&#xe0f9;" d="M450 407l-75 87q-16 18 -39 18h-256q-13 0 -22.5 -9.5t-9.5 -22.5v-448q0 -13 9.5 -22.5t22.5 -9.5h352q13 0 22.5 9.5t9.5 22.5v336q0 22 -14 39zM352 492l10 -8l76 -88q4 -4 6 -12h-92v108zM448 32q0 -7 -4.5 -11.5t-11.5 -4.5h-352q-7 0 -11.5 4.5t-4.5 11.5v448 q0 7 4.5 11.5t11.5 4.5h256v-128h112v-336zM294 238q-15 14 -27 33t-20 40q2 5 2 8q2 6 3 20t2 25v11q-8 -32 -9 -37q-1 -2 -1.5 -4.5t-1.5 -5.5q-2 7 -3.5 13.5t-2.5 12.5l-2 12t-1.5 11.5t-0.5 10.5q0 4 0.5 10t1.5 10q1 7 4 9q6 -1 13 -16q3 -8 3 -24q1 2 1.5 4.5t1.5 9 t0 10.5q0 5 -4.5 11.5t-11.5 6.5h-1h-4q-6 0 -11 -2.5t-6 -7.5q-2 -7 -2.5 -16t0.5 -18.5t3.5 -21.5l5 -24t6.5 -26l-4 -9q-4 -11 -10 -24t-9.5 -20t-11.5 -21q-64 -125 -96 -130v1q0 4 3 10.5t9 14.5t14.5 16.5t17.5 16.5q1 1 4.5 4t6.5 6l3 3q-1 0 -2 -0.5t-3.5 -2l-5 -3 l-5 -3t-3.5 -1.5q-46 -28 -51 -51v-4t1 -4t3 -3l8 -4q30 -15 86 82q63 21 126 30q27 -15 55.5 -23t41.5 -4q5 1 9 6l1 3l1.5 4.5t0.5 2.5q-3 -4 -6 -5q-8 -4 -30 1.5t-48 18.5q48 5 67 -1q18 -6 17 -12q1 4 1 6q0 3 -1.5 5.5t-3.5 4.5q-4 5 -15 7.5t-27 2.5q-12 0 -26 -1 t-29 -3q-4 2 -7 4t-7 4.5t-7 5t-6 4.5zM190 185q6 11 11 19.5t10 17.5q16 31 28 64q18 -36 46 -59q3 -3 6.5 -5.5t7.5 -5.5q-63 -12 -109 -31z" />
<glyph unicode="&#xe0fa;" d="M450 407l-75 87q-16 18 -39 18h-256q-13 0 -22.5 -9.5t-9.5 -22.5v-448q0 -13 9.5 -22.5t22.5 -9.5h352q13 0 22.5 9.5t9.5 22.5v336q0 22 -14 39zM352 492l10 -8l76 -88q4 -4 6 -12h-92v108zM448 32q0 -7 -4.5 -11.5t-11.5 -4.5h-352q-7 0 -11.5 4.5t-4.5 11.5v448 q0 7 4.5 11.5t11.5 4.5h256v-128h112v-336zM304 256q-33 0 -56.5 -23.5t-23.5 -56.5q0 -16 6.5 -31t17 -25.5t25.5 -17t31 -6.5q33 0 56.5 23.5t23.5 56.5t-23.5 56.5t-56.5 23.5zM304 176v64q26 0 45 -19t19 -45h-64zM96 256h96v-32h-96v32zM96 192h96v-32h-96v32zM96 128 h96v-32h-96v32z" />
<glyph unicode="&#xe0fb;" d="M450 407l-75 87q-16 18 -39 18h-256q-13 0 -22.5 -9.5t-9.5 -22.5v-448q0 -13 9.5 -22.5t22.5 -9.5h352q13 0 22.5 9.5t9.5 22.5v336q0 22 -14 39zM352 492l10 -8l76 -88q4 -4 6 -12h-92v108zM448 32q0 -7 -4.5 -11.5t-11.5 -4.5h-352q-7 0 -11.5 4.5t-4.5 11.5v448 q0 7 4.5 11.5t11.5 4.5h256v-128h112v-336zM320 274h22l-26 -113l-33 159h-53l-39 -159l-28 159h-56l56 -256h55l38 151l34 -151h50l65 256h-85v-46z" />
<glyph unicode="&#xe0fc;" d="M450 407l-75 87q-16 18 -39 18h-256q-13 0 -22.5 -9.5t-9.5 -22.5v-448q0 -13 9.5 -22.5t22.5 -9.5h352q13 0 22.5 9.5t9.5 22.5v336q0 22 -14 39zM352 492l10 -8l76 -88q4 -4 6 -12h-92v108zM448 32q0 -7 -4.5 -11.5t-11.5 -4.5h-352q-7 0 -11.5 4.5t-4.5 11.5v448 q0 7 4.5 11.5t11.5 4.5h256v-128h112v-336zM224 224l-32 32l-96 -96l96 -96l32 32l-64 64zM288 96l32 -32l96 96l-96 96l-32 -32l64 -64z" />
<glyph unicode="&#xe0fd;" d="M0 512v-512h512v512h-512zM320 480h64v-64h-64v64zM224 480h64v-64h-64v64zM128 480h64v-64h-64v64zM32 480h64v-64h-64v64zM32 384h192v-256h-192v256zM96 32h-64v64h64v-64zM192 32h-64v64h64v-64zM288 32h-64v64h64v-64zM384 32h-64v64h64v-64zM480 32h-64v64h64v-64z M480 128h-224v256h224v-256zM480 416h-64v64h64v-64z" />
<glyph unicode="&#xe0fe;" d="M0 448v-384h512v384h-512zM96 96h-64v64h64v-64zM96 224h-64v64h64v-64zM96 352h-64v64h64v-64zM384 96h-256v320h256v-320zM480 96h-64v64h64v-64zM480 224h-64v64h64v-64zM480 352h-64v64h64v-64z" />
<glyph unicode="&#xe0ff;" d="M0 448v-384h512v384h-512zM96 96h-64v64h64v-64zM96 224h-64v64h64v-64zM96 352h-64v64h64v-64zM384 96h-256v320h256v-320zM480 96h-64v64h64v-64zM480 224h-64v64h64v-64zM480 352h-64v64h64v-64zM192 352v-192l128 96z" />
<glyph unicode="&#xe100;" d="M256 512q-106 0 -181 -23.5t-75 -56.5v-48l192 -192v-160q0 -13 18.5 -22.5t45.5 -9.5t45.5 9.5t18.5 22.5v160l192 192v48q0 33 -75 56.5t-181 23.5zM47 443q6 3 13.5 6.5t16.5 6.5t19 5q68 19 160 19t160 -19q31 -8 49 -18q10 -6 14 -11l-2.5 -2.5t-4.5 -3.5t-7 -5 q-18 -10 -49 -18q-68 -19 -160 -19t-160 19q-31 8 -49 18q-10 6 -14 11q4 5 14 11z" />
<glyph unicode="&#xe101;" d="M296 0q80 58 84 141q-3 -6 -7.5 -12t-9 -10t-9 -7.5t-8.5 -6t-7.5 -4t-4.5 -1.5l-2 -1q14 38 -8 84.5t-78 68.5q24 -52 0 -92q-6 12 -13.5 21.5t-14.5 15.5t-13 10t-10 6l-4 2l7 -47q4 -56 -25 -50q-14 4 -31 17q-2 -18 6.5 -39t21.5 -37.5t26.5 -30t23 -21t10.5 -7.5 q-22 0 -45 4t-54 18t-53.5 37t-35 66t-5.5 100q18 -19 34.5 -30.5t24.5 -13.5l7 -1q26 109 -21 143q20 4 38.5 -1t31.5 -17t18 -27q21 23 14.5 71t-32.5 69q11 -1 22.5 -5t20 -9.5t15.5 -13t12 -14.5t8 -14q42 68 0 150q21 -15 36 -32.5t23 -30.5t13.5 -35t7 -34t4.5 -39 q22 24 45.5 37t32.5 14.5t15 1.5q-22 -27 -30 -63t-4.5 -64.5t14.5 -45.5q25 9 42.5 23.5t23.5 24.5l5 10l14 -51q27 -147 -61 -201q-45 -27 -115 -27z" />
<glyph unicode="&#xe102;" d="M161 0q-80 45 -107 91t-14 107q5 26 31.5 79.5t28.5 85.5q18 -33 21 -85q112 137 97 234l5 -2.5t12 -7t18 -11.5t21.5 -16.5t23.5 -21t22 -25.5t19.5 -30.5t14.5 -34.5t7 -39q4 7 6 16.5t3 19.5t0 20t-3 19.5t-6 16.5q10 -7 25 -23t34.5 -43.5t34.5 -59t19.5 -69.5 t-4 -74.5t-42 -75.5t-89.5 -71q24 53 22.5 109t-28.5 108t-71 84q5 -26 -5 -69.5t-37 -73.5q3 14 2.5 25.5t-3 21t-5.5 16t-5 9.5l-2 4q-1 -5 -3 -13t-11 -30t-22 -41q-16 -22 -23 -40.5t-5.5 -47t18.5 -62.5z" />
<glyph unicode="&#xe103;" d="M256 256l128 -128v256zM128 384h-64v-256h64v128l128 -128v256l-128 -128v128z" />
<glyph unicode="&#xe104;" d="M432 509l-128 -26q-7 -1 -11.5 2.5t-4.5 10.5t-4.5 10.5t-11.5 2.5l-144 -29v32h-64v-512h64v256l144 29q7 1 11.5 -2.5t4.5 -10.5t4.5 -10.5t11.5 -2.5l128 26q7 1 11.5 6.5t4.5 12.5v192q0 7 -4.5 10.5t-11.5 2.5z" />
<glyph unicode="&#xe105;" d="M296 475q-2 7 -11.5 12t-24 7.5t-29.5 3.5t-34.5 1h-33t-31 -1t-22.5 -1q-6 15 -22 15q-6 0 -11.5 -3.5t-9 -9.5t-3.5 -13v-460q0 -11 7 -18.5t17 -7.5q7 0 12.5 3.5t9 9.5t3.5 13v220q34 26 104 44t79 -1q7 -24 62 -37.5t90 2.5v203q-127 -56 -152 18zM113 257v225 q9 -23 15.5 -50t4.5 -77t-20 -98z" />
<glyph unicode="&#xe106;" d="M254 451q-34 40 -65.5 50.5t-92.5 10.5v-256q44 22 78 25.5t51.5 -4.5t43 -16t51.5 -6q37 3 74.5 23.5t65 46.5t52.5 59q-62 -16 -109 -13.5t-81 21.5t-68 59zM0 512h64v-512h-64v512z" />
<glyph unicode="&#xe107;" d="M0 256q0 46 33 79t79 33t79 -33t33 -79t-33 -79t-79 -33t-79 33t-33 79zM288 256q0 46 33 79t79 33t79 -33t33 -79t-33 -79t-79 -33t-79 33t-33 79z" />
<glyph unicode="&#xe108;" d="M427 512h-342q-35 0 -60 -25t-25 -60v-342q0 -35 25 -60t60 -25h342q35 0 60 25t25 60v342q0 35 -25 60t-60 25zM160 176q-33 0 -56.5 23.5t-23.5 56.5t23.5 56.5t56.5 23.5t56.5 -23.5t23.5 -56.5t-23.5 -56.5t-56.5 -23.5zM352 176q-33 0 -56.5 23.5t-23.5 56.5 t23.5 56.5t56.5 23.5t56.5 -23.5t23.5 -56.5t-23.5 -56.5t-56.5 -23.5z" />
<glyph unicode="&#xe109;" d="M506 323q-10 30 -29.5 47.5t-42.5 21t-49.5 -7t-49.5 -33.5q31 59 8 106.5t-87 47.5t-87 -47.5t8 -106.5q-47 48 -99 40.5t-71.5 -68.5t17.5 -97t104 -26q-39 -20 -57.5 -50t-10.5 -63t42 -57q52 -37 97.5 -13t56.5 90q11 -66 56.5 -90t97.5 13q52 38 43 89t-69 81 q67 -10 104 26t18 97zM256 169q-31 0 -52.5 21.5t-21.5 52.5q0 15 6 29t16 23.5t23.5 15.5t28.5 6t28.5 -6t23.5 -15.5t16 -23.5t6 -29q0 -6 -1 -12t-3 -11.5t-4.5 -10.5t-6 -9.5t-7.5 -8.5t-8.5 -7.5t-9.5 -6t-10.5 -4.5t-11.5 -3t-12 -1z" />
<glyph unicode="&#xe10a;" d="M0 352l16 -288h480l16 288h-512zM464 416h-208l-16 32h-176l-32 -64h448z" />
<glyph unicode="&#xe10b;" d="M224 448l64 -64h224v-352h-512v416h224z" />
<glyph unicode="&#xe10c;" d="M492 384h-472q-10 0 -15.5 -7t-4.5 -17l59 -272q2 -10 10.5 -17t18.5 -7h336q10 0 18.5 7t10.5 17l59 272q1 7 -1 12.5t-7 8.5t-12 3zM448 424q0 10 -7 17t-17 7h-216l-16 32h-104q-10 0 -17 -7t-7 -17v-56h384v24z" />
<glyph unicode="&#xe10d;" d="M492 384h-44v40q0 10 -7 17t-17 7h-216l-16 32h-104q-10 0 -17 -7t-7 -17v-72h-44q-10 0 -15.5 -7t-4.5 -17l59 -272q2 -10 10.5 -17t18.5 -7h336q10 0 18.5 7t10.5 17l59 272q1 7 -1 12.5t-7 8.5t-12 3zM96 448h76l16 -32h228v-32h-320v64zM422 96h-332l-55 256h442z " />
<glyph unicode="&#xe10e;" d="M64 512v-160l64 96h128v-416h-64v-32h96h96v32h-64v416h128l64 -96v160h-448zM128 224h64l32 -48v80h-224v-80l32 48h64v-192h-32v-32h48h48v32h-32v192z" />
<glyph unicode="&#xe10f;" d="M400 504q-23 0 -60.5 4t-60.5 4q-55 0 -98 -14.5t-69.5 -39.5t-40 -55t-13.5 -64q0 -37 17.5 -52.5t54.5 -15.5l-1.5 3t-2 4.5l-1.5 4.5t-1.5 6.5t-1.5 8.5t-1 11v14q0 130 88 134q-1 -9 -3 -23t-8.5 -56.5t-14 -81.5t-21 -88.5t-29 -87t-37 -68t-45.5 -40.5v-12h84h74 l54 256h99l22 64h-107l26 123q59 -12 83 -12q18 0 30.5 5t25 23.5t19.5 52.5q-13 -4 -28.5 -6t-32.5 -2z" />
<glyph unicode="&#xe110;" d="M432 512q-33 0 -56.5 -23.5t-23.5 -56.5v-240h64v-192h96v432q0 33 -23.5 56.5t-56.5 23.5zM208 512q-7 0 -11.5 -4.5t-4.5 -11.5v-112q0 -8 -16 -8t-16 8v112q0 7 -4.5 11.5t-11.5 4.5t-11.5 -4.5t-4.5 -11.5v-112q0 -8 -16 -8t-16 8v112q0 7 -4.5 11.5t-11.5 4.5 t-11.5 -4.5t-4.5 -11.5v-112q0 -8 -16 -8t-16 8v112q0 7 -4.5 11.5t-11.5 4.5t-11.5 -4.5t-4.5 -11.5v-112v-32q0 -13 24 -30q2 -1 3 -2q11 -8 17.5 -14.5t13 -19.5t6.5 -30v-256h96v256q0 24 10 37.5t27 26.5q1 1 3 2q24 17 24 30v32v112q0 7 -4.5 11.5t-11.5 4.5z" />
<glyph unicode="&#xe111;" d="M218 0v116l-76 42l16 23l60 -32v95h45v-61l52 25l14 -25l-66 -32v-33l96 45l12 -25l-108 -51v-87h200l-223 512l-223 -512h201z" />
<glyph unicode="&#xe112;" d="M512 427q0 35 -25 60t-60 25h-342q-35 0 -60 -25t-25 -60v-342q0 -35 25 -60t60 -25h342q35 0 60 25t25 60v342zM414 76h-142v61l77 36l-8 18l-69 -32v24l47 22l-9 18l-38 -18v43h-31v-67l-43 23l-11 -16l54 -31v-81h-143l158 362z" />
<glyph unicode="&#xe113;" d="M131 512q-18 -33 -27.5 -67t-6 -69t22 -61.5t61.5 -42.5t107 -15v127l192 -192l-192 -192v124q-65 -1 -114 16.5t-77 47.5t-40.5 70.5t-7 84t26 88t55.5 81.5z" />
<glyph unicode="&#xe114;" d="M160 352h-32v-32h-32v-32h32v-32h32v32h32v32h-32v32zM320 328q0 10 7 17t17 7t17 -7t7 -17t-7 -17t-17 -7t-17 7t-7 17zM368 280q0 10 7 17t17 7t17 -7t7 -17t-7 -17t-17 -7t-17 7t-7 17zM370 426q-31 0 -61.5 -17t-52.5 -17q-13 0 -24 3.5t-19.5 8.5t-18 10t-23 8.5 t-29.5 3.5q-27 0 -50.5 -12.5t-40 -33t-28.5 -46.5t-17.5 -53t-5.5 -52q0 -132 36 -142q20 -5 44.5 10.5t58.5 47.5q17 16 28.5 23t17.5 7.5t25 0.5l46 -1l46 1h5q15 0 21.5 -1t17.5 -8t27 -22q34 -32 58.5 -47.5t44.5 -10.5q36 10 36 142q0 44 -15.5 88t-49 76.5 t-77.5 32.5zM144 224q-33 0 -56.5 23.5t-23.5 56.5t23.5 56.5t56.5 23.5t56.5 -23.5t23.5 -56.5t-23.5 -56.5t-56.5 -23.5zM368 224q-33 0 -56.5 23.5t-23.5 56.5t23.5 56.5t56.5 23.5t56.5 -23.5t23.5 -56.5t-23.5 -56.5t-56.5 -23.5z" />
<glyph unicode="&#xe115;" d="M400 352h-288q-46 0 -79 -33t-33 -79t33 -79t79 -33q16 0 32 4.5t29 13t23 20.5t17 26h86q13 -29 40.5 -46.5t60.5 -17.5q46 0 79 33t33 79t-33 79t-79 33zM169 224h-41v-41h-32v41h-41v32h41v41h32v-41h41v-32zM368 183q-10 0 -17.5 7.5t-7.5 17.5q0 7 3.5 12.5t9 9 t12.5 3.5q10 0 17.5 -7.5t7.5 -17.5t-7.5 -17.5t-17.5 -7.5zM432 247q-3 0 -6 0.5t-5 2t-4.5 3t-4 4t-3 4.5t-2 5t-0.5 6q0 10 7.5 17.5t17.5 7.5q7 0 12.5 -3.5t9 -9t3.5 -12.5q0 -10 -7.5 -17.5t-17.5 -7.5z" />
<glyph unicode="&#xe116;" d="M320 352l96 64l-96 96l-60 -140l-36 108l-96 -64l80 -64h-176v-128h32v-224h384v224h32v128h-160zM328 470l50 -50l-100 -67zM211 443l29 -85l-71 56zM224 32h-128v208h128v-208zM224 256h-160v64h160v-64zM416 32h-128v208h128v-208zM448 256h-160v64h160v-64z" />
<glyph unicode="&#xe117;" d="M118 388q-38 0 -66 -26t-28 -67q0 -9 1.5 -17.5t5 -16.5t8.5 -16q15 -23 32 -28v-1q-18 -8 -18 -40q0 -24 18 -35v-2q-18 -5 -29 -14.5t-16.5 -21.5t-5.5 -28q0 -41 35 -60q27 -15 70 -15q34 0 57 9.5t34.5 29t11.5 48.5q0 54 -80 66q-18 3 -28 14q-7 7 -7 14q0 21 23 25 q34 5 55.5 31.5t21.5 62.5q0 9 -5 24q13 3 21 6v58q-34 -14 -61 -14q-24 14 -50 14zM124 108q47 0 47 -28q0 -31 -43 -31q-50 0 -50 29q0 30 46 30zM120 256q-35 0 -35 39q0 41 35 41q8 0 14.5 -3t11.5 -10q8 -12 8 -28q0 -39 -34 -39zM290 512q-16 0 -27.5 -12.5 t-11.5 -29.5t11.5 -29t27.5 -12t27 12q12 12 12 29t-11.5 29.5t-27.5 12.5zM322 384h-64q0 -2 0.5 -4.5t0 -6t-0.5 -7v-8.5v-10v-174v-16.5t0.5 -13t-0.5 -8.5h64q-3 30 -3 42v172q0 8 3 34zM461 190q-24 0 -24 37v104h25h3.5h5h4.5h10v53h-48v24v8.5t1 7.5t1 6h-65 q1 -5 1 -23v-23h-28v-53q12 1 19 1h9v-1v-101q0 -47 12 -69q16 -29 56 -29q5 0 9.5 0.5l9 1t8.5 1.5l8 2t7.5 3t6.5 3v56q-5 -3 -10 -5t-10 -3t-11 -1z" />
<glyph unicode="&#xe118;" d="M132 132q0 -20 34 -20q30 0 30 21q0 20 -33 20q-31 0 -31 -21zM427 512h-342q-35 0 -60 -25t-25 -60v-342q0 -35 25 -60t60 -25h342q35 0 60 25t25 60v342q0 35 -25 60t-60 25zM238 308q-6 -2 -16 -5q2 -4 2.5 -8.5t0.5 -8.5q0 -25 -15 -43.5t-38 -21.5q-16 -2 -16 -17 q0 -2 0.5 -3.5t1.5 -3t3 -3.5q7 -7 20 -9q55 -9 55 -47q0 -60 -72 -60q-30 0 -49 10q-24 13 -24 42q0 33 36 45v1q-13 8 -13 25q0 21 13 27v1q-13 4 -23 19q-5 8 -7.5 17t-2.5 18q0 28 19 47q20 18 46 18q19 0 36 -10q18 0 43 10v-40zM301 173h-44q0 3 0.5 10t0.5 16v121 q0 19 -1 26h44v-4.5t-0.5 -5.5t-0.5 -7v-8v-120q0 -20 1 -28zM298 384.5q-8 -8.5 -19 -8.5t-19 8.5t-8 20.5t8 20.5t19 8.5t19 -8.5t8 -20.5t-8 -20.5zM421 178q-7 -4 -16 -6t-19 -2q-28 0 -39 20q-8 15 -8 48v70v1h-6q-5 0 -13 -1v38h19v15q0 11 -1 18h45q-1 -8 -1 -17v-16 h34v-38h-3h-4.5t-5 0.5t-4.5 0.5h-17v-73q0 -26 17 -26q12 0 22 7v-39zM161 312q-25 0 -25 -29q0 -27 25 -27q23 0 23 27q0 6 -1 11t-4 9q-7 9 -18 9z" />
<glyph unicode="&#xe119;" d="M425 434q11 36 -6 77q-1 1 -3 1t-9.5 -0.5t-16 -3t-23.5 -9.5t-31 -18q-34 8 -71 8q-10 0 -20 -0.5t-19.5 -2t-19.5 -3.5t-19 -4q-17 11 -32 18.5t-24.5 10.5t-16.5 4t-10 0l-3 -1q-19 -46 -4 -82q-32 -36 -32 -84q0 -41 10 -69l8 -17q31 -59 130 -70q-19 -12 -24 -37 q-11 -5 -22.5 -7.5t-30 3.5t-30.5 26l-5 7.5t-14 12.5t-24 9l-10 -3q-6 -4 9 -14q18 -9 30 -41q0 -1 1 -2.5t4 -7.5t7.5 -10t12 -9.5t17 -7.5t23 -3t30.5 3v-56q-2 -20 -20 -26l-5 -6q-1 -3 4 -5q0 -1 2 -1q0 1 5 0t12.5 1t15 5t12.5 11.5t5 19.5v62q-2 24 10 32v-100 q-1 -24 -13 -33q-1 -2 -2 -4.5t1.5 -5.5t10.5 -1q1 0 3.5 0.5t8.5 3.5t11 7.5t9 13.5t4 20l1 102h8l1 -102l2 -12t3.5 -10t5 -7.5t5.5 -6t6 -4.5t5.5 -2.5t5 -1.5t3 -1h1.5q8 -2 10 1t1.5 5.5t-1.5 4.5q-14 9 -14 33v100q6 -5 8.5 -12.5t2.5 -13.5l-1 -6v-62q0 -8 3 -14.5 t7.5 -10.5t10 -6.5t10.5 -3.5t9.5 -1.5t7.5 -0.5h3q11 4 1 12q-8 3 -13 9.5t-6 11.5l-1 5v81q0 39 -26 56q37 4 63 13.5t41 23t24 33.5l6 17q4 14 5.5 31t1.5 38q0 53 -36 89zM265 203q-35 0 -59 3.5t-46 12.5t-33 28t-11 48q0 28 25 51q12 11 28.5 14t50 0.5t45.5 -2.5 q13 0 35.5 1.5t35.5 2t27.5 -3t23.5 -11.5q26 -24 26 -52q0 -19 -4 -33.5t-10.5 -24t-18.5 -16t-22.5 -10t-28 -5.5t-30.5 -2.5t-34 -0.5zM184 335q-8 0 -15 -6t-11.5 -16t-4.5 -23q0 -7 1.5 -13.5t4.5 -12t7 -10t8.5 -6.5t9.5 -2q9 0 16 6t11 16t4 22q0 10 -2.5 18t-6.5 14 t-10 9.5t-12 3.5zM350 335q-13 0 -22 -13t-9 -32q0 -12 4 -22t11.5 -16t15.5 -6q6 0 12 3.5t10 9.5t6.5 14t2.5 17q0 19 -9 32t-22 13z" />
<glyph unicode="&#xe11a;" d="M192 192q0 14 2 18.5t11 13.5l147 147q14 14 21 26t9 21.5t2 26.5v67h-64v-64q0 -14 -2 -18.5t-11 -13.5l-147 -147q-14 -14 -21 -26t-9 -21.5t-2 -26.5v-67h-48l80 -128l79 128h-47v64zM384 128v67q0 25 -5.5 39.5t-26.5 34.5l-17 17l-45 -45l17 -17q7 -7 9 -10t3 -7.5 t1 -14.5v-64h-47l79 -128l80 128h-48z" />
<glyph unicode="&#xe11b;" d="M510 339q-21 2 -50.5 4t-45.5 2q-74 0 -96 -11q-2 -1 -9.5 -5t-12 -6t-11 -4.5t-14 -3.5t-15.5 -1q-10 0 -20 2.5t-14.5 4t-16 7.5l-11.5 6q-22 11 -96 11q-16 0 -45.5 -2t-50.5 -4q-4 -29 0 -39q7 -4 11.5 -18t9.5 -37.5t10 -37.5q14 -39 94 -39q55 0 69 9q19 13 37 89 q4 16 22 16h1h1q1 0 2.5 -0.5t4 -0.5t4.5 -1.5t4.5 -3t4 -4t2.5 -6.5q18 -76 37 -89q14 -9 69 -9q80 0 94 39q3 7 5.5 16.5t4 17.5t3.5 16t3.5 15t4 12.5t5 9.5t5.5 6q2 6 2 14.5t-1 16.5zM197 210q-13 -23 -34 -26q-19 -1 -48.5 0.5t-42.5 7.5q-7 4 -12 8t-10 12t-8.5 22.5 t-4.5 36.5q0 2 -1 7q-2 9 -1 17.5t4 15.5t13.5 11t27.5 4q88 2 116 -14q20 -11 20 -34q0 -6 -3.5 -20.5t-8 -28t-7.5 -19.5zM475 271q-3 -41 -11.5 -56t-23.5 -23q-9 -4 -28 -6t-35 -2h-28q-22 2 -34 26q-5 10 -12 34.5t-7 33.5q0 23 20 34q28 16 116 14q25 0 35.5 -8.5 t9.5 -20.5t-2 -26z" />
<glyph unicode="&#xe11c;" d="M0 384v-256h160l96 96l96 -96h160v256h-512zM224 256l-64 -64h-128v128h192v-64zM480 192h-128l-64 64v64h192v-128z" />
<glyph unicode="&#xe11d;" d="M352 480v-48l80 -144h-352l80 144v48l-160 -192v-256h160l96 96l96 -96h160v256zM224 160l-64 -64h-128v128h192v-64zM480 96h-128l-64 64v64h192v-128z" />
<glyph unicode="&#xe11e;" d="M240 480q-99 0 -169.5 -70.5t-70.5 -169.5t70.5 -169.5t169.5 -70.5t169.5 70.5t70.5 169.5t-70.5 169.5t-169.5 70.5zM376 160q6 31 8 64h63q-2 -33 -15 -64h-56zM104 320q-6 -31 -8 -64h-63q2 33 15 64h56zM343 320q7 -31 9 -64h-96v64h87zM256 352v94q5 -2 10.5 -4.5 t11.5 -6.5q4 -3 7.5 -6.5l7.5 -7.5t7.5 -8t7 -9t6.5 -11q6 -9 11 -19.5t9 -21.5h-78zM166 393q8 14 17 24.5t19 17.5q6 4 11.5 6.5t10.5 4.5v-94h-78q8 23 20 41zM224 320v-64h-96q2 33 9 64h87zM48 160q-13 31 -15 64h63l2 -22t2.5 -21.5t3.5 -20.5h-56zM128 224h96v-64 h-87q-4 15 -6 31t-3 33zM224 128v-94q-4 1 -7.5 2.5t-7 4t-7.5 4.5q-10 7 -19 17.5t-17 24.5q-6 9 -11 19.5t-9 21.5h78zM314 87q-16 -28 -36 -42q-11 -7 -22 -11v94h78q-2 -4 -3.5 -7.5l-3 -7l-3 -7l-3 -7t-3.5 -6.5zM256 160v64h96q-2 -33 -9 -64h-87zM384 256 q-2 33 -8 64h56q6 -15 10 -31t5 -33h-63zM415 352h-48q-14 44 -37 76q10 -5 20 -11.5t19.5 -14t17.5 -15.5t15 -17t13 -18zM93 387q25 25 57 41q-7 -11 -14 -22.5t-13 -25t-10 -28.5h-48q12 19 28 35zM65 128h48q14 -44 37 -76q-32 16 -57 41q-16 16 -28 35zM387 93 q-25 -25 -57 -41q23 32 37 76h48q-4 -6 -8.5 -12t-9.5 -12t-10 -11z" />
<glyph unicode="&#xe11f;" d="M280 480h-134q-46 0 -81.5 -29.5t-35.5 -68.5q0 -20 7.5 -38t20.5 -31t32.5 -21t41.5 -8q7 0 12 1q-6 -13 -6 -25q0 -11 4.5 -20t13.5 -17h-11h-12q-27 0 -52 -8.5t-42.5 -22t-27.5 -31t-10 -35.5q0 -35 40 -57t97 -22q61 0 96.5 29t35.5 68q0 29 -10.5 48.5t-36.5 38.5 q-12 8 -23.5 20.5t-11.5 21.5q0 11 4.5 18.5t20.5 19.5q38 30 38 70q0 13 -2.5 25t-8 22.5t-14 18t-18.5 11.5h43zM233 152q0 -1 0.5 -3t0.5 -3.5v-3.5v-4q0 -69 -97 -69q-38 0 -63.5 21t-25.5 50t29.5 50t68.5 20q18 0 33 -5q4 -3 11.5 -8t10.5 -7.5t9 -6.5t8.5 -7t6 -7 t5.5 -8t3 -9zM150 298q-8 0 -16.5 3.5t-16 9t-14.5 13t-12 16.5t-8.5 20t-5.5 22q-4 34 11 57t41 22q13 0 25 -7t22 -18t17 -26t9 -32q3 -22 -3 -40.5t-19 -29t-30 -10.5zM416 384v96h-32v-96h-96v-32h96v-96h32v96h96v32h-96z" />
<glyph unicode="&#xe120;" d="M427 512h-342q-36 0 -60.5 -25.5t-24.5 -60.5v-340q0 -36 24.5 -61t60.5 -25h342q35 0 60 25t25 61v340q0 35 -25 60.5t-60 25.5zM352 496v-80h-80v80h80zM240 496v-80h-80v80h80zM16 416v10q0 29 20 49.5t49 20.5h43v-80h-112zM384 192h-96v-96h-64v96h-96v64h96v96h64 v-96h96v-64zM496 416h-112v80h43q14 0 26.5 -5.5t22 -15t15 -22.5t5.5 -27v-10z" />
<glyph unicode="&#xe121;" d="M156 105q-10 4 -21 5.5t-23 1.5q-34 1 -64 -12t-48 -34v-34q0 -13 9.5 -22.5t22.5 -9.5h197q1 8 1 17t-2 19q-2 6 -4.5 11.5t-7 10.5t-8 9t-11 9.5t-11.5 8.5t-14.5 10t-15.5 10zM187 336q-6 45 -34.5 77t-63 33t-55 -29.5t-14.5 -75.5q3 -22 12.5 -42.5t22.5 -35.5 t29.5 -24t33.5 -10q23 0 40 14t25 38.5t4 54.5zM0 109q43 20 93 20h15.5h15.5q-11 11 -17.5 23.5t-6.5 26.5q0 15 9 33q-7 -1 -17 -1q-55 0 -92 32v-134zM512 384v96q0 13 -9.5 22.5t-22.5 9.5h-448q-13 0 -22.5 -9.5t-9.5 -22.5v-51q11 10 24 17.5t27 13t29.5 8.5t30.5 3 h179l-40 -29h-56q13 -5 24 -15.5t18.5 -24t11 -30t3.5 -32.5q0 -54 -50 -93q-22 -17 -28.5 -27t-6.5 -24q0 -3 1.5 -7t4 -7.5t5.5 -7.5t7 -8l7.5 -7.5t7.5 -7t7.5 -6.5t6.5 -5q35 -24 49 -50t14 -66q0 -12 -3 -24h207q13 0 22.5 9.5t9.5 22.5v320h-96v-96h-32v96h-96v32h96 v96h32v-96h96z" />
<glyph unicode="&#xe122;" d="M96 218v-74q0 -26 49 -53t111 -27t111 27t49 53v74l-160 -80zM256 448l-256 -128l256 -128l208 104l-16 -136h32v144l32 16zM272 313q-6 0 -11.5 3t-8.5 8.5t-3 11.5t3 11.5t8.5 8.5t11.5 3t11.5 -3t8.5 -8.5t3 -11.5t-3 -11.5t-8.5 -8.5t-11.5 -3z" />
<glyph unicode="&#xe123;" d="M32 32v480h-32v-512h512v32h-480zM128 78q21 0 35.5 14.5t14.5 35t-15 35.5l54 108q2 -1 3.5 -1h3.5q12 0 22 5l61 -61q-5 -10 -5 -22q0 -21 14.5 -35.5t35.5 -14.5t35.5 14.5t14.5 35.5q0 22 -17 37l59 137h4q14 0 25 7t18 18t7 25q0 21 -14.5 35.5t-35.5 14.5 t-35.5 -14.5t-14.5 -35.5q0 -22 17 -37l-59 -137h-4q-12 0 -22 -5l-61 61q0 2 1 3.5t1.5 3.5t1 3.5t0.5 3.5t0.5 4t0.5 4q0 8 -2.5 15.5t-7 14t-11 11t-14 7t-15.5 2.5q-14 0 -25 -7t-18 -18t-7 -25q0 -10 4 -19t11 -16l-54 -108q-2 1 -3.5 1h-3.5q-6 0 -11.5 -1.5t-10.5 -4 t-9 -6t-7.5 -7.5t-6 -9t-4 -10.5t-1.5 -11.5q0 -21 14.5 -35.5t35.5 -14.5z" />
<glyph unicode="&#xe124;" d="M0 512h128v-128h-128v128zM192 512h128v-128h-128v128zM384 512h128v-128h-128v128zM0 320h128v-128h-128v128zM192 320h128v-128h-128v128zM384 320h128v-128h-128v128zM0 128h128v-128h-128v128zM192 128h128v-128h-128v128zM384 128h128v-128h-128v128z" />
<glyph unicode="&#xe125;" d="M0 512h224v-224h-224v224zM288 512h224v-224h-224v224zM0 224h224v-224h-224v224zM288 224h224v-224h-224v224z" />
<glyph unicode="&#xe126;" d="M0 512v-512h512v512h-512zM480 352h-128v128h128v-128zM192 192v128h128v-128h-128zM320 160v-128h-128v128h128zM160 192h-128v128h128v-128zM192 352v128h128v-128h-128zM352 320h128v-128h-128v128zM160 480v-128h-128v128h128zM32 160h128v-128h-128v128zM352 32v128 h128v-128h-128z" />
<glyph unicode="&#xe127;" d="M502 502q-3 3 -8 5.5t-10 4t-8 -0.5l-59 -65l-1 -8l-155 -149q-52 43 -89 12q-8 -6 -14.5 -17.5t-12 -22t-9.5 -13.5q-7 -7 -26.5 -10t-43 -11t-42.5 -28q-58 -64 26.5 -148.5t148.5 -26.5q20 19 28.5 42.5t11 43t9.5 26.5q2 3 7 6t11 6t12.5 6.5t12.5 8t10 9.5 q9 11 12 23t-2.5 29.5t-21.5 36.5l149 155l8 1l65 59q1 3 0.5 6t-2 7t-3.5 7.5t-4 5.5zM166 81l-6 -6q-3 -4 -5 -1l-81 81q-3 2 1 5l6 6q3 4 5 1l81 -81q3 -2 -1 -5zM233 172.5q-12 -11.5 -28 -11.5t-27.5 11.5t-11.5 28t11 27.5q8 8 18 10.5t20 0t18 -10.5q12 -11 12 -27.5 t-12 -28z" />
<glyph unicode="&#xe128;" d="M512 320q0 27 -6.5 50t-16 36.5t-19 23.5t-16.5 14l-6 4h-448v-64h32v-32h96h3q22 -1 39 -10t28 -23t16.5 -26t9.5 -24q5 -15 12.5 -24.5t21 -14t27 -5.5t37.5 -1h41q0 -14 -3 -66.5t1 -57.5q1 -4 3 -8.5t5.5 -8.5t8.5 -7.5t10.5 -6t12.5 -4t15 -1.5h96q0 19 -18 90 t-18 118.5t36 47.5zM322 248q-42 0 -56 5q-5 2 -8 4t-6 7t-5 12q-8 25 -20 44h48q7 0 13.5 -0.5t11.5 -1.5q1 -22 -2 -38.5t-10 -23.5q15 5 23 19.5t9 36.5q6 -3 11.5 -7t10 -9t7.5 -10t5.5 -11.5t4 -13t2.5 -13.5h-39z" />
<glyph unicode="&#xe129;" d="M367 218q-11 12 -52.5 48.5t-59.5 54.5l-7 -8l-72 71l-25 45q1 2 3 5t10 11t19.5 14t32 11.5t45.5 6.5l-6 10q-103 28 -188 -51q0 -2 0.5 -10.5t0 -12t-3 -10.5t-7 -11t-13.5 -8t-22 -7l-22 -26q1 -1 2 -3.5t6 -9t10 -12.5t13.5 -12t17.5 -9l27 22q0 3 1 7.5t6 14 t12 14.5t20.5 4t30.5 -13l72 -71l-8 -8q18 -18 54 -59t48 -53q4 -4 33.5 -29t56.5 -53.5t48 -62.5q27 2 43.5 18.5t18.5 43.5q-33 21 -62 48t-53.5 56.5t-29.5 33.5z" />
<glyph unicode="&#xe12a;" d="M505 54l-274 250l13 13q15 15 16 37q1 1 1.5 1h0.5l51 32q6 7 5.5 15t-6.5 14l-89 90q-6 6 -14.5 6t-14.5 -5l-32 -52l-1 -1q-10 -1 -20 -5t-17 -12l-49 -49q-16 -16 -17 -38h-2l-51 -33q-5 -6 -5 -14.5t6 -13.5l90 -90q3 -4 8.5 -5.5t10.5 -0.5t9 5l32 51q1 1 1 2 q11 0 20.5 4.5t17.5 12.5l14 14l249 -275q5 -6 12.5 -7t12.5 4l25 25q5 5 4 12.5t-7 12.5z" />
<glyph unicode="&#xe12b;" d="M470.5 310.5q-9.5 9.5 -22.5 9.5t-23 -9l-14 -14q-59 -60 -59 -9v160q0 13 -9.5 22.5t-22.5 9.5t-22.5 -9.5t-9.5 -22.5v-160q0 -7 -4.5 -11.5t-11.5 -4.5t-11.5 4.5t-4.5 11.5v192q0 13 -9.5 22.5t-22.5 9.5t-22.5 -9.5t-9.5 -22.5v-192q0 -7 -4.5 -11.5t-11.5 -4.5 t-11.5 4.5t-4.5 11.5v160q0 13 -9.5 22.5t-22.5 9.5t-22.5 -9.5t-9.5 -22.5v-160q0 -7 -4.5 -11.5t-11.5 -4.5t-11.5 4.5t-4.5 11.5v96q0 13 -9.5 22.5t-22.5 9.5t-22.5 -9.5t-9.5 -22.5v-96v-64q0 -22 4.5 -48t17.5 -58.5t33 -57.5t56 -42.5t81 -17.5t81 18.5t60.5 49 t43.5 62.5t41.5 69t42.5 57l10 9q9 10 9 23t-9.5 22.5z" />
<glyph unicode="&#xe12c;" d="M454 156l-198 94v73q-8 -3 -16 -3q-20 0 -34 14t-14 34t14 34t34 14q8 0 15 -2.5t13 -7t10.5 -10.5t7 -13t2.5 -15t-3 -16h33q2 8 2 16q0 33 -23.5 56.5t-56.5 23.5t-56.5 -23.5t-23.5 -56.5q0 -19 8.5 -35.5t23 -28t32.5 -14.5v-40l-198 -94q-16 -7 -22.5 -25.5 t-0.5 -36.5q11 -30 40 -30h394q29 0 40 30q6 18 -0.5 36.5t-22.5 25.5zM449 106q-4 -10 -12 -10h-394q-8 0 -12 10q-1 4 -1 8t2.5 7.5t5.5 5.5l202 96l202 -96q5 -3 7 -9t0 -12z" />
</font>
</defs>
</svg>
